<svg id="Layer_1" data-name="Layer 1" xmlns="http://www.w3.org/2000/svg" viewBox="0 0 532.44 495.72"><defs><style>.cls-1,.cls-13{fill:none;}.cls-1{stroke:#231f20;stroke-miterlimit:10;stroke-width:4px;}.cls-2{font-size:74px;fill:#231f20;}.cls-10,.cls-2{font-family:BodoniMT, Bodoni MT;}.cls-3{fill:#2a2a2a;}.cls-10,.cls-4{fill:#fff;}.cls-5{fill:#676767;}.cls-6{fill:#909090;}.cls-7{fill:#a3a3a3;}.cls-8{fill:#626262;}.cls-9{fill:#010101;}.cls-10{font-size:30px;}.cls-11{letter-spacing:0.01em;}.cls-12{letter-spacing:-0.03em;}</style></defs><line class="cls-1" x1="79.98" y1="259.94" x2="449.34" y2="259.94"/><text class="cls-2" transform="translate(56.57 341.92)">ENDERASE</text><path class="cls-3" d="M332,293.09c-1.56-2.37-.88-1.59-.8-4.12-1.45-1.22-3.34-3-3.42-5-1.31-1.63-1.16-5.19-3.43-5.94.23-3.5-.55-1.8-2.7-1.26-2.21.72.08,1-1.15,2-1.07,1.15-.78.21-1.94.21-1.39.71-2.95.1-4.43.53-1.25-1.45-1.83-.16-3.13.13-2.81-2.74-10.39,5.29-9.56,1,4.18.24-1.19-2-2.54-.08-4.38-.24-5.69,8.28-9.05,8,1.21-3.1-1-1.26-1.05-2.5-.59-.48-.14-1.85-1.24-1.65-3.51,0,1.68,4.72-5.36,5.63-.25-.31-.62-1.24-1.18-.89-1.53,2-2.12-.35-2-1.79.2-.62,2.21-2.68,1.1-3.24-3.65-1.17.56-2.84,2.27-2.6-.16-.18-1.15-1-.88-1.41-4.58-1.49-.35-2.94-8.58-4.76-1.2-.92-.36-2.73-1.47-3.54-.47-.26-1.53-.39-1.37-1.16,2.22.81,2.7-2.24,2.92-3.77.07-1.84-4.2-.71-5.33-.89-.39.15-.46,1.79-.7,2.06-.7,1,.13,2-2,1.5-2.48,1.14-5.29,3.11-7.88,4.13-2.24,1.19-4.3-5-6.38-2.38-.28.11-.44-.27-.5-.49.05-1.59-1.45,0-1.84-1.77.83-1.76.2-1.22-1.15-1.51-1-.73-.62-.41-1.13.59-1.61,1-4.81-3-5.91.31-2.56.42.76-2.55-1.59-1.9-12.91,9.79,2.12,10.81-6.43,17.85-.26-2-.9-.31-2.11-2.87-2.88.23-1.06-.68-2.3-2.23-3.56-.67-5.33-8.39-10.17-6.71-.93.24-.19-1.2-.86-1.24-3.32-.53-.63.4-2.31,3.52-1.19,2.13-2.11,3.8-4.31,1.83-3.89,1.06,1.49,8.73-6.78,6.84-.37,14.87,2.65,5.85,10.72,15.18,1.93.33,6.56-.58,1.86,1.54,0,.13-1.16.3-.66.64,2.27.88-3,2.2,1.49,5.55-.3,2,3.2,1,1.47,2.87,3.8,1.14,1.18-2.11,2.48-3.51.84-1.11,2.47-3.46,3.94-2.13.12,1.77,5.62-1,3-1.92-.67-3.25,4.14-.48,1.63,2,4,3.72,2.28,5.48,9.57,6.73,18.44,9.79,10.54-10.49,14.56-9,2.19,2.78.86-1.71,1.34-3.16-.12-.59-1.51-.34-1.81-.93-.71-1,1-3.37,1.63-1.57,2.87,1.61,6.68-.33,9.73-.38,1.07.36.26,2.22,1.48,2.19,1.52-.26,1-1.43,1.67-2.34,3.77-3.41,3.77,9.83,1.86,2.5-2.27,1.24,2.92,1.4-2.59,8.4-.22,1.44.57,2.74-1.22,3.23-.39,2.14-8.11,7.57-1.18,6.07,1.14-2.69,2.77.27,4.65-.53,3.83,5.24-3.61,3.27,6.16,7.38,2.41,1.41,1.37,4.09,1.58,6.13.84,1.35-2.75.81-2.79-.82-1.65-3.28-8.4-4.33-7.05.58-4.71,4.68,1.64,3.45-1.7,5.12-1.55,1.06-3.27-3.19-3.37-4.21.08-.69.59-.07,1-.12,1.17-.55-.42-2.71,1.68-2.82,1.06-1.23-.42-2-1.51-1.59-2.92-3.18-6.53-2.18-4.58,2.41-.34,1.43-1.5,2.05-.94,3.68-.17,1.07,2.1.94,2.66,1.59.77,3.22,3.36,3-.5,4.82.08,10-1.76,2.64-4.92,5.43-6.07,3.26-11.65-3-10.16,7.07-4.56,7.91-4.09,3,2,6.55,4.26,3.42,10.57,6.23,14.69,10.32,30.76,9.89,17.17-21.13,31.18-25.45,2.75-.51,5.72-.61,7.54-3.13,1-.89,4.14-1.44,2.66-3.27-1.32-12.19,1-16.91,11.11-9.18,1.09-.36,1.93-3.8,3.09-2,3.28-.33,3.24-6.38,5.07-8.84,1.78-4.68-5.58-1.91-4.84-6.32,1.72-3.67,0-18.36,6.56-14.75,5.13-1,2.86,11.85,6.47,2.59C332,295.27,331.91,296,332,293.09Zm-97.46-3.36c-1.5-2.46-.67-.32-2.12-1-.38,0-.75.28-1-.11,0-1,.15-3.12,1.63-2.36,1.35-.28.32.64,1.18.9.29,0,.43-.17.25.22C234,288.05,235.19,290,234.5,289.73Zm1.47-2.42a.84.84,0,0,1-1.32-.17C234.94,286.47,236.09,286.72,236,287.31Zm2.47-7.84c-2,.78.38,1.91-1,1.6C236.25,282.49,236.68,276.64,238.44,279.47Z" transform="translate(-33.88 -157.61)"/><path class="cls-4" d="M271.33,368.56A34.75,34.75,0,0,1,261,366.62l-.06,0a48.52,48.52,0,0,0-8.61-6.23,60.17,60.17,0,0,1-6.06-4.07,10.19,10.19,0,0,0-4.43-1.51c-.39,0-.6-.07-.68-.25s.06-.43.53-1.1a44,44,0,0,0,2.48-3.87c-.43-2.94-.28-4.64.48-5.49s2-.79,3.59-.7a11.09,11.09,0,0,0,6.17-1,2.63,2.63,0,0,1,3.25-.26c.43.2.76.35,1,.21.46-.3.65-1.92.62-5.24a.17.17,0,0,1,.09-.15c1.31-.63,1.88-1,2-1.34s-.12-.49-.4-.89a6.55,6.55,0,0,1-1.13-2.36,2.85,2.85,0,0,0-1.13-.46c-.77-.2-1.64-.44-1.55-1.19a2.74,2.74,0,0,1,.4-2.47A5.22,5.22,0,0,0,258,327c-.81-1.93-.7-3.47.28-4.12s3-.13,4.52,1.51a1.68,1.68,0,0,1,1.83.48c.16.23.34.72-.25,1.41a.16.16,0,0,1-.11,0c-1.05.06-1.05.63-1,1.35,0,.55,0,1.18-.59,1.46l-.05,0a1,1,0,0,1-.51-.13c-.07,0-.23-.1-.26-.08s0,0-.06.16c.09.79,1.16,3.56,2.33,4.12a.75.75,0,0,0,.79,0v0c.83-.41.93-.59.94-.64s-.18-.19-.31-.28a1.54,1.54,0,0,1-.82-1.12c-.06-.73.52-1.7,1.79-3-.57-2.2.5-3,1.2-3.26,1.78-.71,5,.4,6.17,2.66a.14.14,0,0,1,0,.07c0,.64.68,1.08,1.29,1.29s1.15.16,1.27,0,0-.25-.07-.37a.19.19,0,0,1,0-.07,11.12,11.12,0,0,1,0-1.73c.09-1.61.18-3.28-1.51-4.27-5.57-2.35-5.69-2.76-5.26-3.83.25-.61.59-1.46-.87-3.5a3,3,0,0,1-2.21-.32c-.95-.41-1.64-.71-2.24.71a.16.16,0,0,1-.11.1c-1.8.39-2.73.35-3-.13-.38-.67.69-1.88,1.93-3.28a9.15,9.15,0,0,0,2.06-2.85.16.16,0,0,1,.11-.13c1.15-.31,1.12-.94,1.07-1.88a5.62,5.62,0,0,1,0-1.22.13.13,0,0,1,0-.08c3.45-4.38,2.66-6,2.18-6.92-.27-.53-.5-1,.47-1.52a.17.17,0,0,1,.14,0,.17.17,0,0,1,.09.11c.45,1.74.73,2.06.8,2.11a4.22,4.22,0,0,0,0-2.14c-.18-1.17-.64-2.51-1.39-2.79-.39-.14-.85,0-1.36.48a2.5,2.5,0,0,0-.38.95c-.15.61-.3,1.25-1.38,1.43h0c-.77,0-.88-.63-1-1.16s-.14-.88-.54-1a18.32,18.32,0,0,0-3.25.49c-2.25.47-4.58,1-6.53-.13a.18.18,0,0,1-.07-.08c-.09-.24-.24-.53-.48-.55s-.55.24-.77.64a1.34,1.34,0,0,0-.1,1.33v0c.11.22.48.29.84.37s.91.19,1,.59a.14.14,0,0,1,0,.09,7.31,7.31,0,0,0-.06,2.09c.07,1.21.09,1.9-.29,2.05s-.66-.16-1.24-.89a.6.6,0,0,0-.56,0c-.5.34-.56,1.73-.63,3.33-.12,2.81-.27,6.31-2.68,7.72-2.15,1.26-5.63.58-10.64-2.08-5-.86-5.78-2-7.07-3.78a16.87,16.87,0,0,0-2.56-3,.14.14,0,0,1-.06-.12.18.18,0,0,1,.05-.12,1.73,1.73,0,0,0,.4-2.33c-.38-.6-1.08-1-1.49-.8s-.39.53-.28,1.15c.71.29.8.7.73,1-.18.92-2.06,1.87-3.14,1.8a.8.8,0,0,1-.83-.66,1.18,1.18,0,0,0-.9-.32c-1,.1-2,1.45-2.62,2.26l-.15.2h0a2.45,2.45,0,0,0-.3,1.95c.07.67.13,1.3-.27,1.63s-1,.29-2.06,0a.15.15,0,0,1-.11-.12.16.16,0,0,1,0-.15c.41-.44.46-.66.44-.76s-.34-.27-.65-.39c-.6-.22-1.41-.52-1.31-1.53-2.72-2.09-1.81-3.47-1.21-4.38.2-.3.38-.57.32-.75s-.2-.24-.48-.35h0a.39.39,0,0,1-.21-.34c0-.23.33-.34.61-.45a1.09,1.09,0,0,0,.21-.09.18.18,0,0,1,.07-.05,6.06,6.06,0,0,0,1.92-1.07,7.81,7.81,0,0,0-1.63-.08,13,13,0,0,1-2.12-.08.11.11,0,0,1-.09,0c-3.2-3.7-5.57-4.48-7.3-5.05-2.61-.85-3.69-1.21-3.46-10.25a.14.14,0,0,1,.06-.12.16.16,0,0,1,.13,0c2,.44,3.27.38,4-.19s.85-1.8.9-3c.06-1.55.12-3.15,1.81-3.61a.16.16,0,0,1,.15,0,2.37,2.37,0,0,0,1.82.83c.86-.15,1.49-1.27,2.22-2.57l0,0a4.22,4.22,0,0,0,.54-2.82c0-.34-.07-.59.11-.77s.62-.2,1.82,0c.44,0,.46.49.47.79s0,.39.09.45.12,0,.24,0c2.94-1,4.75,1.27,6.5,3.49,1.2,1.52,2.33,2.95,3.74,3.21a.15.15,0,0,1,.09.06,2.4,2.4,0,0,1,.56,1.6c0,.25,0,.39.1.47s.63.18,1.51.11a.15.15,0,0,1,.15.09c.6,1.26,1,1.45,1.36,1.59s.59.29.73,1c3.51-3,2.64-4.77,1.64-6.83-1.23-2.53-2.62-5.39,4.58-10.84,0,0,0,0,.05,0,.52-.14.83-.13,1,0s.07.58-.06,1-.24.66-.12.81.2.15.7.08a1.9,1.9,0,0,1,1-1.2c.76-.35,1.71.07,2.63.48s1.73.77,2.3.44a3.58,3.58,0,0,0,.25-.61c.07-.21.12-.36.27-.41s.38.08.81.4a7.25,7.25,0,0,0,.78.1c.38,0,.65,0,.78.26s0,.55-.31,1.32c.17.73.54.75.95.77s.91.05.89,1a.52.52,0,0,0,.2.35h0a1.58,1.58,0,0,1,1.13-.66c.85-.05,1.63.75,2.45,1.6,1,1,1.89,1.93,2.81,1.44h0a34.33,34.33,0,0,0,4.46-2.29c1.19-.68,2.32-1.32,3.41-1.82a.18.18,0,0,1,.1,0c1.32.29,1.37.06,1.49-.47a2.64,2.64,0,0,1,.37-1h0a3.28,3.28,0,0,0,.21-.78c.15-.73.26-1.21.55-1.32a.11.11,0,0,1,.08,0,7.82,7.82,0,0,0,1.51-.07c1.34-.12,3-.28,3.67.35a1,1,0,0,1,.29.78h0c-.15,1-.44,3.13-1.57,3.82a1.67,1.67,0,0,1-1.36.15c.05.28.38.43.85.61a3.21,3.21,0,0,1,.45.19h0a2.33,2.33,0,0,1,.77,1.81,2.34,2.34,0,0,0,.68,1.71c4.83,1.07,5.41,2,6,2.94.38.62.74,1.21,2.59,1.81a.2.2,0,0,1,.11.11.17.17,0,0,1,0,.14c-.05.08,0,.33.74,1.09l.12.12a.15.15,0,0,1,0,.18.15.15,0,0,1-.17.09c-1.13-.16-3.36.57-3.52,1.3-.07.34.4.69,1.32,1h0a.76.76,0,0,1,.4.48c.15.61-.46,1.49-.94,2.19a6,6,0,0,0-.47.75c-.05,1,.21,2.16.68,2.34s.77-.3,1.06-.68l0,0c.57-.36,1,.29,1.22.67l.12.19c3.88-.53,3.81-2.25,3.75-3.63a2.13,2.13,0,0,1,.3-1.6,1.61,1.61,0,0,1,1.22-.39c.8-.14.94.48,1,.94a1.33,1.33,0,0,0,.32.74.23.23,0,0,1,.06.12c0,.3.17.34.56.37a.87.87,0,0,1,.75.31c.18.29.13.81-.19,1.67,1.37-.06,2.42-1.75,3.53-3.53,1.33-2.14,2.84-4.56,5.22-4.48.85-1.08,3-.86,3.9-.42.33.15.47.32.43.5s-.28.39-1.59.33c-.07.47,0,.78.13.9.4.31,1.64-.34,2.95-1,2.17-1.14,4.87-2.56,6.4-1.18a3.77,3.77,0,0,0,.91-.41,1.49,1.49,0,0,1,2.23.28,7.1,7.1,0,0,1,1.94-.15,4.91,4.91,0,0,0,2.36-.34l.07,0h0a1.58,1.58,0,0,1,.93.27c.23.13.31.19.88-.43,0,0,0,0,0,0,.45-.34.35-.52.21-.78a.63.63,0,0,1-.1-.57c.1-.25.43-.45,1.09-.67h0a7.38,7.38,0,0,0,1.46-.58c.51-.25.88-.43,1.16-.23s.37.76.29,2.12c1.39.53,1.87,2.06,2.33,3.54a7.55,7.55,0,0,0,1.05,2.41.25.25,0,0,1,0,.09c.08,1.87,1.74,3.51,3.37,4.86a.16.16,0,0,1,.06.13,12.79,12.79,0,0,1-.16,1.56c-.13.77-.15.85.92,2.47a.16.16,0,0,1,0,.09v.23c0,2.1,0,2.23-1.18,2.58-.24.08-.54.17-.91.31-1.12,2.87-1.62,3.43-2,3.4s-.66-.76-1-1.87c-.52-1.93-1.23-4.56-3.57-4.09a.12.12,0,0,1-.1,0,2.75,2.75,0,0,0-2.68-.32c-1.91,1-2.33,5.4-2.69,9.25a21.54,21.54,0,0,1-1,5.73c-.32,2,1.08,2.38,2.57,2.81,1,.28,2,.58,2.39,1.38a2.68,2.68,0,0,1-.12,2.13s0,0,0,0a12.52,12.52,0,0,0-1.5,3.68c-.74,2.46-1.5,5-3.68,5.23a.15.15,0,0,1-.15-.07c-.19-.28-.37-.43-.54-.43h0c-.36,0-.75.6-1.13,1.18s-.78,1.19-1.24,1.35a.16.16,0,0,1-.15,0c-4.3-3.29-7.25-4.39-9-3.36-2,1.17-2.6,5.09-1.82,12.35a1.4,1.4,0,0,1,.37,1.18c-.15.73-1.05,1.17-1.93,1.6a5.83,5.83,0,0,0-1.14.66c-1.59,2.19-4,2.59-6.41,3-.4.07-.81.13-1.21.21-5.31,1.64-6.57,7.11-7.91,12.91-1.19,5.16-2.42,10.5-6.75,13A12.38,12.38,0,0,1,271.33,368.56Zm-10.18-2.24c7.42,2.38,12.75,2.54,16.31.48,4.21-2.43,5.43-7.7,6.6-12.8a37.68,37.68,0,0,1,2.49-8.07,9.22,9.22,0,0,1,5.64-5.08h0c.41-.08.83-.15,1.23-.21,2.31-.38,4.7-.76,6.21-2.86l0,0a6.89,6.89,0,0,1,1.23-.72c.77-.37,1.64-.8,1.76-1.37a1.16,1.16,0,0,0-.34-1,.2.2,0,0,1,0-.08c-.8-7.43-.17-11.47,2-12.72,1.89-1.09,4.94,0,9.31,3.34a3.65,3.65,0,0,0,1-1.19c.45-.68.87-1.33,1.4-1.33h0a1,1,0,0,1,.75.5c1.9-.27,2.62-2.67,3.32-5a12.53,12.53,0,0,1,1.53-3.75,2.35,2.35,0,0,0,.12-1.85c-.33-.68-1.23-.94-2.19-1.21-1.49-.43-3.18-.92-2.79-3.2,0,0,0,0,0-.05a21.47,21.47,0,0,0,.95-5.64c.37-3.93.79-8.39,2.85-9.51a3,3,0,0,1,2.94.3c2.58-.48,3.36,2.41,3.88,4.33.2.72.44,1.63.67,1.64h0c.21,0,.68-.57,1.73-3.27a.2.2,0,0,1,.09-.09c.42-.16.75-.26,1-.34.53-.17.7-.23.8-.45a6.44,6.44,0,0,0,.15-1.82v-.18c-1.08-1.63-1.1-1.79-.95-2.67A11.36,11.36,0,0,0,331,289c-1.64-1.38-3.31-3-3.42-5a7.78,7.78,0,0,1-1.07-2.47c-.46-1.44-.93-2.94-2.25-3.37a.17.17,0,0,1-.11-.17c0-.48.12-1.78-.14-2s-.46.07-.84.26a7,7,0,0,1-1.52.59c-.66.22-.84.39-.88.48s0,.16.09.3.36.68-.29,1.19c-.68.72-.9.7-1.28.47a1.19,1.19,0,0,0-.73-.22,5.28,5.28,0,0,1-2.47.36,6.09,6.09,0,0,0-1.95.16.16.16,0,0,1-.17-.05c-.78-.9-1.22-.66-1.89-.28a4,4,0,0,1-1.08.46.14.14,0,0,1-.15,0c-1.35-1.32-4,.06-6.09,1.17-1.53.8-2.73,1.43-3.29,1-.29-.21-.36-.66-.23-1.36a.16.16,0,0,1,.17-.13,3.35,3.35,0,0,0,1.37-.08,3.39,3.39,0,0,0-1.56-.44,2.54,2.54,0,0,0-2.22.7.21.21,0,0,1-.14.07c-2.24-.13-3.65,2.13-5,4.32-1.19,1.9-2.3,3.69-3.88,3.69h-.17a.22.22,0,0,1-.13-.08.19.19,0,0,1,0-.15c.41-1.05.39-1.45.3-1.6s-.24-.14-.5-.16-.78-.05-.86-.6a1.74,1.74,0,0,1-.37-.88c-.11-.53-.19-.78-.68-.69h0a1.33,1.33,0,0,0-1,.29c-.26.28-.24.78-.21,1.36.06,1.44.15,3.42-4.13,4a.16.16,0,0,1-.14-.05l-.2-.29c-.3-.49-.51-.72-.75-.59-.52.67-1,.93-1.41.77-.75-.29-.94-1.8-.89-2.69,0,0,0,0,0,0a4,4,0,0,1,.51-.85c.43-.62,1-1.47.89-1.93a.37.37,0,0,0-.22-.26c-1.13-.36-1.64-.82-1.52-1.37.19-.87,2.16-1.55,3.44-1.57-.32-.32-.7-.76-.66-1.12a3.92,3.92,0,0,1-2.61-1.89c-.53-.87-1.08-1.77-5.81-2.81l-.06,0a2.62,2.62,0,0,1-.83-1.95,2.06,2.06,0,0,0-.63-1.58,3.1,3.1,0,0,0-.39-.16c-.51-.19-1.2-.45-1.05-1.17a.15.15,0,0,1,.08-.11.15.15,0,0,1,.13,0,1.44,1.44,0,0,0,1.29-.06c1-.6,1.28-2.6,1.42-3.57a.69.69,0,0,0-.19-.52c-.56-.53-2.21-.38-3.42-.26a8.85,8.85,0,0,1-1.53.07,3.34,3.34,0,0,0-.32,1.06,2.62,2.62,0,0,1-.28.93,2.25,2.25,0,0,0-.32.84c-.16.72-.39,1-1.81.74-1.07.49-2.17,1.12-3.34,1.79a36.94,36.94,0,0,1-4.5,2.31,1.35,1.35,0,0,1-.66.17c-.88,0-1.71-.85-2.52-1.68s-1.5-1.54-2.2-1.51a1.34,1.34,0,0,0-.94.59.15.15,0,0,1-.06.05.37.37,0,0,1-.34,0,.9.9,0,0,1-.37-.58.06.06,0,0,1,0,0c0-.62-.18-.63-.58-.65a1.17,1.17,0,0,1-1.26-1.08.21.21,0,0,1,0-.11c.11-.22.44-.91.35-1.06s-.27-.09-.52-.11a5.17,5.17,0,0,1-.86-.1l-.07,0a4.11,4.11,0,0,0-.53-.37,1,1,0,0,0-.08.2,3.81,3.81,0,0,1-.28.69.2.2,0,0,1-.06.07c-.72.45-1.7,0-2.64-.4s-1.73-.77-2.37-.49a1.69,1.69,0,0,0-.82,1.11.16.16,0,0,1-.13.11c-.57.09-.92,0-1.1-.19s-.08-.73.06-1.12c.08-.23.2-.56.13-.64s-.12-.1-.64,0c-7,5.28-5.68,7.89-4.45,10.41,1,2.14,2,4.16-1.94,7.41a.16.16,0,0,1-.16,0,.16.16,0,0,1-.11-.13c-.11-.87-.28-.94-.58-1.07s-.85-.37-1.47-1.65c-.94.07-1.4,0-1.63-.2a.86.86,0,0,1-.21-.7,2.15,2.15,0,0,0-.45-1.36c-1.5-.31-2.65-1.77-3.87-3.31-1.68-2.13-3.42-4.34-6.15-3.39h0a.54.54,0,0,1-.51-.05.86.86,0,0,1-.22-.7c0-.38-.05-.47-.18-.48h0a3.54,3.54,0,0,0-1.56-.07c-.06.06,0,.26,0,.49a4.59,4.59,0,0,1-.58,3l0,0c-.77,1.37-1.44,2.56-2.44,2.73a2.58,2.58,0,0,1-2-.84c-1.38.43-1.43,1.82-1.49,3.29-.05,1.26-.1,2.56-1,3.28s-2.12.71-4.08.29c-.2,8.6.75,8.91,3.25,9.73,1.76.58,4.16,1.37,7.4,5.1a12.85,12.85,0,0,0,2,.07c1.31,0,1.89,0,2,.33s-.08.51-2.09,1.42a.81.81,0,0,1-.34.17,2.19,2.19,0,0,0-.38.17l0,0c.38.15.59.33.66.55s-.11.66-.37,1c-.57.86-1.35,2,1.22,4a.17.17,0,0,1,.06.16c-.12.83.49,1.05,1.09,1.27.39.15.77.29.85.62a1.05,1.05,0,0,1-.34.86c.78.21,1.29.22,1.52,0s.22-.77.16-1.34a2.74,2.74,0,0,1,.38-2.21l.15-.19c.68-.9,1.72-2.27,2.84-2.38a1.5,1.5,0,0,1,1.19.43.16.16,0,0,1,0,.11c0,.1,0,.4.54.43,1,.07,2.67-.85,2.81-1.54,0-.26-.15-.48-.62-.65a.17.17,0,0,1-.1-.12c-.23-1.14.19-1.5.46-1.61a1.75,1.75,0,0,1,1.88.92,2,2,0,0,1-.32,2.62,18.41,18.41,0,0,1,2.49,2.93c1.24,1.75,2,2.81,6.88,3.65l.05,0c4.84,2.57,8.33,3.28,10.35,2.1,2.25-1.33,2.4-4.72,2.52-7.45.08-1.77.14-3.16.77-3.59a1,1,0,0,1,.89,0,.13.13,0,0,1,.07.05c.7.9.9.84.9.83.18-.07.12-1.14.09-1.72a7.22,7.22,0,0,1,.06-2.17c-.07-.16-.4-.23-.72-.3s-.87-.18-1.06-.53a1.67,1.67,0,0,1,.09-1.67c.22-.41.63-.84,1.08-.8.22,0,.52.15.73.69,1.83,1,4.08.53,6.26.07a18,18,0,0,1,3.33-.5h.06c.6.2.7.81.78,1.3s.17.89.62.89h0c.86-.15,1-.58,1.11-1.17a2.76,2.76,0,0,1,.45-1.1l0,0c.89-.81,1.55-.67,1.94-.42,1.31.85,1.64,4.12,1.35,5.08-.09.31-.24.37-.35.37s-.49,0-1.07-2.16c-.49.3-.39.5-.15,1,.47.95,1.36,2.72-2.19,7.24a6.9,6.9,0,0,0,0,1.11c.05.92.09,1.8-1.21,2.19a9.7,9.7,0,0,1-2.11,2.91c-1,1.09-2.15,2.43-1.89,2.89.1.18.57.42,2.57,0,.72-1.63,1.69-1.22,2.62-.82a2.55,2.55,0,0,0,2.08.28.15.15,0,0,1,.19,0c1.66,2.27,1.26,3.27,1,3.93-.18.43-.26.63.28,1.05a25.5,25.5,0,0,0,4.82,2.35h0c1.87,1.09,1.76,2.94,1.67,4.57a13.13,13.13,0,0,0,0,1.65.59.59,0,0,1,0,.71c-.28.36-1,.32-1.63.12s-1.47-.77-1.51-1.55c-1.05-2-4.11-3.13-5.75-2.48-1.06.42-1.4,1.45-1,3a.16.16,0,0,1-.05.16c-1.22,1.22-1.81,2.15-1.76,2.78a1.24,1.24,0,0,0,.68.87c.24.17.47.33.45.58s-.33.52-1.1.91a1.06,1.06,0,0,1-1.1.07c-1.3-.62-2.43-3.57-2.51-4.41v0a.54.54,0,0,1,.22-.43c.17-.1.36,0,.55.07a1,1,0,0,0,.32.1c.36-.18.38-.56.38-1.14s0-1.58,1.27-1.68a.8.8,0,0,0,.19-1,1.42,1.42,0,0,0-1.57-.32.14.14,0,0,1-.17,0c-1.62-1.76-3.32-2.1-4.17-1.54s-.91,2-.14,3.77a.17.17,0,0,1,0,.1,5,5,0,0,1-.57,1.36,2.4,2.4,0,0,0-.36,2.24.11.11,0,0,1,0,.08c-.07.46.47.64,1.31.87a2.62,2.62,0,0,1,1.31.58.16.16,0,0,1,0,.07,6.42,6.42,0,0,0,1.09,2.29c.32.45.55.79.45,1.17s-.65.83-2,1.5c0,4.07-.28,5.09-.77,5.41s-.8,0-1.3-.18a2.33,2.33,0,0,0-2.92.22l0,0a11.34,11.34,0,0,1-6.34,1c-1.5-.08-2.68-.15-3.34.59s-.81,2.45-.39,5.28a.2.2,0,0,1,0,.11,44.47,44.47,0,0,1-2.52,3.94,5.19,5.19,0,0,0-.5.77,2.44,2.44,0,0,0,.41.06,10.48,10.48,0,0,1,4.57,1.56l0,0a61.88,61.88,0,0,0,6,4.05A48.66,48.66,0,0,1,261.15,366.32Zm-45.48-66.15Zm18.93-10.26a.47.47,0,0,1-.16,0,.27.27,0,0,1-.08-.07c-.54-.89-.75-1.11-.82-1.14l-.07.07c-.21.22-.48.43-1.13.14a1.27,1.27,0,0,0-.26,0,.7.7,0,0,1-.85-.23.16.16,0,0,1,0-.09c0-.95.13-2.16.76-2.55a1,1,0,0,1,1,0c.39-.07.61-.06.76.06a.55.55,0,0,1,.16.43c0,.2,0,.33.27.41a.47.47,0,0,0,.17,0,.28.28,0,0,1,.18,0,.93.93,0,0,1,1.07-.36.65.65,0,0,1,.51.72.11.11,0,0,1,0,.09,1.05,1.05,0,0,1-.9.28,1,1,0,0,1-.58-.35l0,.08h0c-.17.28,0,.93.16,1.4s.25.82.08,1A.26.26,0,0,1,234.6,289.91Zm-1.07-1.56h0c.2,0,.4.2,1,1.16a4.44,4.44,0,0,0-.15-.57,2.43,2.43,0,0,1-.14-1.63h-.14a.66.66,0,0,1-.51-.71c0-.09,0-.17,0-.2s-.13-.06-.55,0a.12.12,0,0,1-.1,0,.79.79,0,0,0-.79-.07c-.38.25-.6,1.05-.6,2.22.11.14.23.12.48.06a2,2,0,0,1,.36-.05h0l.06,0c.52.24.66.09.79-.06A.4.4,0,0,1,233.53,288.35Zm1.3-1.21a.59.59,0,0,0,.4.24.73.73,0,0,0,.59-.15c0-.19-.24-.28-.29-.3A.63.63,0,0,0,234.83,287.14Zm1.14.17Zm1.16-5.85a.35.35,0,0,1-.14,0c-.41-.17-.38-1.05-.36-1.31.05-.65.28-1.46.78-1.58s.76.19,1.17.84a.17.17,0,0,1,0,.14.18.18,0,0,1-.09.1c-.4.16-.64.34-.71.54a.77.77,0,0,0,.17.61c.09.15.17.29.08.42s-.24.12-.51.06A.58.58,0,0,1,237.13,281.46Zm.42-2.61h-.06c-.26.06-.49.6-.54,1.28s.07.95.17,1,.1,0,.23-.17a.18.18,0,0,1,.16,0l.18,0h0a1.08,1.08,0,0,1-.19-.89,1.25,1.25,0,0,1,.71-.66C238,279,237.73,278.85,237.55,278.85Z" transform="translate(-33.88 -157.61)"/><path class="cls-5" d="M203.59,292.55c1.51,1.28.95-.26,2.38-.06,2.9,2.06,5.76,4.38,8.38,6.35.91.11,3.38-.79,3.46.45-5.78,2.65,0-.06-3.09,4.1-.13,2.1,2,1.77,2.15,4,.2.43,2.22.48,1.76,1.15-.61.4-.62.95.2.84.61.36,1.72-.21,1.62-1,2,2.71,1.07,2.62,1,6.08-1.34-.29-2.79.8-3.86-.48a.94.94,0,0,1-1.15.43c-.34.9-1.7.19-2.42.54-1.11.54-1.79,1.7-3.23,1.22-11.25-1.28-4.9-6.55-15.92-10.65-.92-.54-1.47-.14-2.32.18-1.39-.28-2-1.75-3.5-1-4.07-1.52,1.2-5,1.35-6.74.44-.28-.53-.47-.57-1,.41-1-.42-1.33.61-1.64.1-1.22,3.14,0,4.19-.74.14-.57,1,.71,1.6,0,1,.1,1.08,1.85,2.28,1.4C200,294.69,203,295.15,203.59,292.55Z" transform="translate(-33.88 -157.61)"/><path class="cls-4" d="M211.41,316.51a2.28,2.28,0,0,1-.69-.12c-6-.68-7.07-2.52-8.34-4.65-1.13-1.91-2.42-4.08-7.6-6h0a1.72,1.72,0,0,0-1.79,0l-.4.16h-.08a3.86,3.86,0,0,1-1.38-.67,1.74,1.74,0,0,0-2-.34.17.17,0,0,1-.12,0c-.91-.34-1.43-.79-1.59-1.38-.3-1.07.7-2.34,1.58-3.46A5.49,5.49,0,0,0,190.2,298a.16.16,0,0,1,.07-.13l0,0-.17-.14a1.1,1.1,0,0,1-.5-.72.24.24,0,0,1,0-.08,1.37,1.37,0,0,0,.07-.85c-.05-.38-.05-.65.54-.85.15-.71,1.18-.64,2.18-.57a4,4,0,0,0,2-.14.32.32,0,0,1,.16-.18c.18-.08.37,0,.6.14s.65.3.86,0a.13.13,0,0,1,.14-.06,1.61,1.61,0,0,1,1.06.81c.35.5.6.79,1.12.61a6.09,6.09,0,0,1,2.14-1c1.31-.42,2.55-.82,2.9-2.37a.16.16,0,0,1,.11-.12.16.16,0,0,1,.15,0c.75.64.88.52,1.1.3a1.28,1.28,0,0,1,1.21-.39.11.11,0,0,1,.07,0c1.85,1.32,3.69,2.74,5.46,4.12,1,.77,1.95,1.5,2.88,2.2a5.79,5.79,0,0,0,1.07-.09c.82-.12,1.76-.26,2.22.12a.74.74,0,0,1,.27.57.15.15,0,0,1-.09.16l-.31.14c-1.24.57-2,.9-2.21,1.06a.79.79,0,0,1,.48.56c.12.48-.2,1.22-1,2.25a2,2,0,0,0,.93,1.78,2.88,2.88,0,0,1,1.22,2.14,2.38,2.38,0,0,0,.73.29c.5.15,1,.29,1.08.59a.45.45,0,0,1-.08.41l0,0c-.29.2-.39.4-.36.47s.13.12.44.07l.11,0a1,1,0,0,0,1-.11.74.74,0,0,0,.39-.69.15.15,0,0,1,.1-.17.16.16,0,0,1,.19,0c1.46,2,1.39,2.54,1.19,4a21.24,21.24,0,0,0-.19,2.2.21.21,0,0,1-.07.13.14.14,0,0,1-.13,0,4,4,0,0,0-1.46.06,2.43,2.43,0,0,1-2.36-.45,1.12,1.12,0,0,1-1.08.39c-.29.5-.91.45-1.45.41a2.06,2.06,0,0,0-1,.07,5.86,5.86,0,0,0-.89.57A2.88,2.88,0,0,1,211.41,316.51ZM194.9,305.43c5.28,2,6.6,4.19,7.76,6.14,1.27,2.14,2.28,3.83,8.11,4.5h0a2.14,2.14,0,0,0,2.17-.6,6.06,6.06,0,0,1,.94-.61,2.26,2.26,0,0,1,1.14-.1c.64.05,1,.05,1.2-.35a.18.18,0,0,1,.09-.1.22.22,0,0,1,.14,0c.33.19.76-.09.94-.37a.15.15,0,0,1,.12-.07.2.2,0,0,1,.14.06c.61.73,1.34.61,2.19.47a4.63,4.63,0,0,1,1.39-.08c0-.89.12-1.53.19-2.05.18-1.3.24-1.79-.9-3.42a1.19,1.19,0,0,1-.47.56,1.28,1.28,0,0,1-1.28.15c-.53.07-.69-.15-.74-.28s.08-.58.45-.84c0,0,0-.07,0-.09s-.54-.29-.86-.38-.83-.25-.95-.48a.13.13,0,0,1,0-.06,2.56,2.56,0,0,0-1.11-2,2.29,2.29,0,0,1-1-2.1.14.14,0,0,1,0-.09c.89-1.19,1-1.75.94-2a.54.54,0,0,0-.34-.35c-.11-.06-.24-.12-.24-.27s.15-.3,2.49-1.37l.2-.09a.42.42,0,0,0-.14-.22c-.35-.29-1.25-.16-2-.06a5.47,5.47,0,0,1-1.19.1l-.08,0c-.94-.71-1.9-1.45-2.91-2.23-1.77-1.37-3.59-2.78-5.43-4.09a.92.92,0,0,0-.89.31c-.33.31-.59.46-1.34-.13-.46,1.53-1.78,1.95-3.05,2.36a5.84,5.84,0,0,0-2.06.95l0,0c-.79.29-1.18-.24-1.52-.71-.23-.31-.44-.6-.75-.68-.38.41-.89.15-1.2,0a1.22,1.22,0,0,0-.31-.13v0a.13.13,0,0,1-.06.1,3.85,3.85,0,0,1-2.26.23c-1.1-.08-1.82-.1-1.86.38a.15.15,0,0,1-.11.14c-.47.14-.45.22-.41.52a1.69,1.69,0,0,1-.08,1c0,.18.21.32.37.45s.31.25.3.42a.29.29,0,0,1-.12.23,5.75,5.75,0,0,1-1.31,2.16c-.83,1.06-1.77,2.26-1.52,3.17.13.47.56.84,1.33,1.14a2.07,2.07,0,0,1,2.27.39,3.54,3.54,0,0,0,1.21.61l.35-.14A2,2,0,0,1,194.9,305.43Zm3.57-9.42Z" transform="translate(-33.88 -157.61)"/><path class="cls-5" d="M318.3,243.17c-1.66,1.78-3.51,3.18-3.28,6,3.26,14.27-5.52,3.33-8,10.08-1.47.74-5.23,12.63-2.65,13-2.06,2-4.75,4.41-4.77,7.62-4.73,1.34-5.61,5.41-8.67,8.39-2.53,1.84,0-1-1.09-1.7-2.26.19-.46-2.85-3.13-2.11.64-1.11,2.32-2.83.12-3.26-.67-1.54,2.35-1.24.48-5.78.73-.54,2.26.88,2.58-.23-.95-1.24,2.42-2.59,0-3.83-2-2.47,2.26-.48,1.51-2.1-.22-2.64,1.48-6.13,0-8.47,2.63-7.5-3.63-14.82-5.32-23.13a8.38,8.38,0,0,0,.44-4.27c.48-1.59,2.53-3.35.76-4.93-2-.08-1.18-2.63-.53-3.63-1-1.74-2.32-7.48.22-7.36-.7-2,.87-7.54-1.34-7.8-.3-.32.27-.73.44-1-.27-.37-1.24.06-1-.57.31-.87,2-2.28,0-1.85-.63-.12-.17-.6.16-.79,1.3-1.1,3.06.38,4-.39,1.18-3.6,5.48.87,7.33,2.09,6.75.82,8,7.9,12.79,11.32,9.24,5.27,5.76,8.72,10.57,10.63C327,233.88,321.69,237.86,318.3,243.17Z" transform="translate(-33.88 -157.61)"/><path class="cls-4" d="M289.91,289.07a.25.25,0,0,1-.16-.05c-.19-.14-.1-.43,0-.86.2-.62.35-1.16,0-1.4-1.15.08-1.34-.67-1.5-1.28a1.31,1.31,0,0,0-.43-.84,1.46,1.46,0,0,0-1.12,0,.18.18,0,0,1-.17-.06.17.17,0,0,1,0-.18c.11-.2.26-.41.41-.64.44-.65.93-1.39.75-1.85-.11-.25-.42-.43-.93-.53a.16.16,0,0,1-.11-.1,1.25,1.25,0,0,1,.36-1.46c.53-.65,1.26-1.55.12-4.32a.15.15,0,0,1,.05-.19,1.57,1.57,0,0,1,1.4,0c.64.19.95.24,1.09-.09-.39-.6,0-1.21.4-1.75s.57-.84.48-1.2-.34-.52-.81-.76l-.06-.05c-.49-.61-.66-1-.53-1.29s.66-.34,1.18-.34c.36,0,.81,0,.9-.16s0-.18-.05-.34a.14.14,0,0,1,0-.06,13.4,13.4,0,0,1,.29-3.22c.3-1.85.62-3.75-.31-5.17a.16.16,0,0,1,0-.15c1.67-4.75-.29-9.45-2.37-14.42a46.91,46.91,0,0,1-3-8.62.22.22,0,0,1,0-.08,8.43,8.43,0,0,0,.44-4.19.11.11,0,0,1,0-.08A7.06,7.06,0,0,1,287,232c.65-1.17,1.27-2.27.16-3.3A1.3,1.3,0,0,1,286,228a3.79,3.79,0,0,1,.52-3.1c-.84-1.52-1.75-5.33-.85-6.85a1.26,1.26,0,0,1,1-.67,11.64,11.64,0,0,1-.09-3.09c.09-2.09.19-4.25-1.05-4.39a.19.19,0,0,1-.1-.05c-.34-.36,0-.77.29-1l0,0a1.84,1.84,0,0,0-.35-.05c-.21,0-.43,0-.54-.19a.48.48,0,0,1,0-.43,4.2,4.2,0,0,1,.51-.86c.15-.21.49-.7.43-.8s-.08-.11-.8,0H285c-.33-.06-.42-.22-.44-.34-.06-.31.32-.62.53-.75a2.73,2.73,0,0,1,2.45-.3c.61.12,1.14.22,1.5-.05a2,2,0,0,1,1.21-1.37c1.43-.44,3.46,1.17,5.09,2.46.48.38.89.71,1.23.94,4.22.53,6.36,3.53,8.43,6.43a20.43,20.43,0,0,0,4.39,4.92c5.28,3,6.42,5.4,7.34,7.32a5.21,5.21,0,0,0,3.2,3.28l0,0c2.11,1.4,3.26,2.83,3.53,4.36.41,2.33-1.3,4.65-3.11,7.1-.65.89-1.32,1.8-1.93,2.76l0,0-.7.73c-1.4,1.43-2.73,2.78-2.54,5.14.94,4.12,1,6.4.07,7.42-.73.82-1.93.68-3.2.52-1.9-.22-3.87-.46-4.83,2.23a.24.24,0,0,1-.08.09c-.53.26-1.5,2.32-2.3,4.89-.7,2.22-1.35,5.17-1.1,6.77q.15,1,.69,1.05a.16.16,0,0,1,.13.11.18.18,0,0,1,0,.17l-.45.43c-2,2-4.25,4.16-4.27,7.07a.15.15,0,0,1-.11.15c-3.08.88-4.5,2.92-6,5.08a21.33,21.33,0,0,1-2.61,3.28l0,0C290.4,288.92,290.09,289.07,289.91,289.07Zm0-2.64.09,0c.59.37.32,1.2.12,1.81,0,.15-.11.36-.13.46a3.79,3.79,0,0,0,.91-.55,21.78,21.78,0,0,0,2.56-3.22c1.52-2.19,2.95-4.25,6.05-5.18.08-3,2.35-5.21,4.37-7.17l.25-.25a1.54,1.54,0,0,1-.68-1.22,18.33,18.33,0,0,1,1.11-6.93c.69-2.21,1.69-4.59,2.4-5,1.07-2.87,3.24-2.61,5.16-2.38,1.24.15,2.31.27,2.92-.42.8-.91.76-3.18-.15-7.14v0c-.2-2.52,1.17-3.92,2.63-5.42.22-.23.46-.47.68-.71.62-1,1.29-1.88,1.95-2.76,1.84-2.51,3.43-4.67,3-6.86-.25-1.43-1.35-2.78-3.37-4.13a5.54,5.54,0,0,1-3.36-3.43c-.9-1.89-2-4.23-7.21-7.19h0a20.49,20.49,0,0,1-4.47-5c-2.13-3-4.14-5.8-8.25-6.3l-.06,0c-.36-.24-.79-.58-1.29-1-1.49-1.18-3.53-2.79-4.8-2.4a1.64,1.64,0,0,0-1,1.2.14.14,0,0,1-.05.08c-.48.4-1.12.27-1.8.14a2.45,2.45,0,0,0-2.19.24l0,0c-.24.14-.41.35-.4.41a.24.24,0,0,0,.16.07c.63-.13,1-.1,1.1.12s-.11.68-.43,1.15a3.75,3.75,0,0,0-.48.8.55.55,0,0,0,0,.14,1.43,1.43,0,0,0,.29,0,.83.83,0,0,1,.7.25.17.17,0,0,1,0,.19L286,209c-.24.25-.36.4-.31.51,1.46.25,1.36,2.52,1.26,4.73a9.91,9.91,0,0,0,.14,3.17.16.16,0,0,1,0,.15.16.16,0,0,1-.14.07,1,1,0,0,0-1,.52c-.84,1.42.11,5.24.9,6.6a.15.15,0,0,1,0,.17,3.57,3.57,0,0,0-.55,2.86,1,1,0,0,0,.95.52.18.18,0,0,1,.1,0c1.37,1.22.61,2.56,0,3.74a7.21,7.21,0,0,0-.64,1.32,8.65,8.65,0,0,1-.44,4.26,46.35,46.35,0,0,0,2.93,8.52c2.09,5,4.06,9.74,2.4,14.59.93,1.51.61,3.45.3,5.33a14,14,0,0,0-.28,3.12.64.64,0,0,1,0,.63c-.18.3-.66.3-1.17.3-.34,0-.81,0-.88.16s0,.28.46.92a1.62,1.62,0,0,1,.95.95,2,2,0,0,1-.53,1.48c-.43.62-.66,1-.35,1.43a.21.21,0,0,1,0,.15c-.23.77-.94.56-1.52.38a1.8,1.8,0,0,0-1-.13c1.13,2.84.35,3.81-.22,4.52-.31.38-.5.62-.35,1a1.37,1.37,0,0,1,1.07.71c.26.63-.29,1.45-.78,2.17l-.19.29a1.45,1.45,0,0,1,1,.1,1.52,1.52,0,0,1,.58,1c.16.62.29,1.11,1.22,1Zm28.42-43.26Z" transform="translate(-33.88 -157.61)"/><path class="cls-3" d="M216.14,331.28c-2.71-5.27-1.93-8.73-6.63-12,1.16-2.12-5.91-2.31-4.31-4.35,2,1.68,1.69.37,3.76.39,3,2.09,3.25.16,6-.4.51,0,1.28.2,1.45-.42,1.61-.55,2,.73,3.48,0,2.43.41,1.06-.67,1.72-2.27,1-3.21-3.87-4.3,0-7.63,3.34-4.11,1.77,2.63,6.68-2.05-.89-.72-1.67-2.09.13-2.24,1.12-.17,1.28,1.48,1.37,2.27,0,.61-1.18,1.19-.41,1.7,3.58,1.21,1.14,4.07,3.86,4.07,19.26,9.22,16,4.45,20-6.85.29,1.44,2.32.73,1.21-.51-.47-1.73,1.14-3-1.1-3.19-1.28-.36-.69-2.21.24-2.63,2.4,2.33,6.29.82,9.43.42,2.27-1.3,1.57,4.13,3.75,1.23.81-4.51,4.48-.4,3.52,2.37.13,2.36-1.08-.7-1.15-1.38-1.7.34-.14.8,0,2.35.8,2.43-2,4-2.6,6.05.35,2.47-2.22,5.73-4.42,7-2.69,2.77,2.18,3.84,3,.91.71.39,1.61.5,2.28.95,5.93,1-1.89,5.2,6.79,6.71,3.8,2.19,1.48,4.58,2.66,7.26-3.76,1.09-2.29-2.36-5.09-3.22-5.8-3-4.41,1.09-6.7,4.84-1,.89.14,1.19.85,1.66s-1.77,1.38-2.2,1.14c-.45-.88-2.58-3.55-2-4.63,3.11.55-.59-1.09,2.92-3.16,0-1.37-.92-1.16-1.88-1-1.44-1.7-4.57-3.07-5.32-.14,2.2,2.71-2.22,5.81.68,7,2.76.43,1.45,2.48,3.43,3.58.42.78-.55,1.2-1.09,1.45-1.95-.47-.34,8.13-2.73,5.86-2.57-2-4.52,2.06-7.23,1.39-10.27-3-3.29,7.06-10,11-9.31,1.34-14.4-3-12.55-12.45,1-1.89-3.21-1.16-4.26-2.35-1.26-.55-1.65,1.62-2.74,1.05-1.75-1.86.61-1.45-1.15-2.76C217.56,337,216.06,333.79,216.14,331.28Z" transform="translate(-33.88 -157.61)"/><path class="cls-4" d="M237.44,355.12c-3.4,0-6.05-.94-7.76-2.78-2.06-2.21-2.69-5.7-1.83-10.1l0,0a.69.69,0,0,0,.08-.62c-.2-.39-1.07-.54-1.91-.69a4.45,4.45,0,0,1-2.38-.83c-.53-.21-.87.13-1.26.54s-.82.85-1.46.52l0,0c-.91-1-.8-1.41-.59-1.81.12-.23.2-.38-.53-.93-2.44-1.27-3.87-4.62-3.8-7a30.57,30.57,0,0,1-1.91-4.84c-.9-2.77-1.61-5-4.65-7.09a.17.17,0,0,1,0-.22.67.67,0,0,0,.07-.56c-.2-.57-1.25-1-2.27-1.4s-2.16-.86-2.34-1.54a1,1,0,0,1,.25-.87.13.13,0,0,1,.11-.06.14.14,0,0,1,.12,0c1.18,1,1.47.89,2,.67a3.88,3.88,0,0,1,1.61-.31.12.12,0,0,1,.09,0c1.92,1.34,2.64,1,3.73.39a7.85,7.85,0,0,1,2.14-.82h0l.27,0c.55,0,.92,0,1-.33a.2.2,0,0,1,.11-.11,2.54,2.54,0,0,1,1.84.06,1.8,1.8,0,0,0,1.61-.05.18.18,0,0,1,.1,0c.7.12,1.11.12,1.26,0s.1-.29.08-.63a3.62,3.62,0,0,1,.21-1.53,3.49,3.49,0,0,0-.72-3.06c-.78-1.27-1.59-2.59.79-4.62.78-1,1.35-1.41,1.85-1.45a1.34,1.34,0,0,1,1,.52c.62.58,1.31,1.23,3.7-1-.56-.5-1-1.19-.85-1.73s.52-.62,1.2-.68a1,1,0,0,1,.77.19,3.33,3.33,0,0,1,.77,2.15v.07s0,0,0,0a1.47,1.47,0,0,1-.38.77c-.16.2-.32.41-.29.56a.35.35,0,0,0,.17.21,3.1,3.1,0,0,1,2.37,2.74c.16.79.26,1.31,1.42,1.31h0l.07,0c9.06,4.34,13,5.52,15.15,4.52,1.64-.76,2.2-2.86,3.05-6.05.41-1.53.88-3.28,1.56-5.23a.18.18,0,0,1,.17-.11.16.16,0,0,1,.14.13.74.74,0,0,0,.61.67.56.56,0,0,0,.57-.25c.11-.21,0-.48-.24-.78a.16.16,0,0,1,0-.07,3.7,3.7,0,0,1,0-1.77c.08-.42.15-.74,0-1s-.46-.3-1-.35h0a1.09,1.09,0,0,1-.85-1,2,2,0,0,1,1.07-1.89.14.14,0,0,1,.17,0c1.83,1.77,4.56,1.25,7.19.74.73-.14,1.41-.27,2.08-.36a1.23,1.23,0,0,1,1-.16c.53.17.81.79,1.06,1.34s.4.88.65.91.44-.1.95-.77c.27-1.47.83-1.93,1.25-2.06a1.64,1.64,0,0,1,1.61.64,4.11,4.11,0,0,1,1,3.89c0,.59,0,1-.28,1-.11,0-.32,0-.76-1a8.37,8.37,0,0,1-.4-1.2c-.4.1-.48.19-.49.22s.09.27.21.46a3,3,0,0,1,.57,1.44c.52,1.59-.41,2.81-1.31,4a7.64,7.64,0,0,0-1.28,2.11c.34,2.6-2.37,5.89-4.48,7.12-.64.66-.88,1.28-.67,1.73a1.43,1.43,0,0,0,1.45.63,2.23,2.23,0,0,0,2-1.62.17.17,0,0,1,.09-.11.17.17,0,0,1,.14,0,6.07,6.07,0,0,0,1,.4,5.14,5.14,0,0,1,1.25.54c2.8.46,2.65,1.72,2.51,2.93-.18,1.46-.36,3,4.25,3.77l.05,0c2.5,1.44,2.44,3,2.38,4.59a5.86,5.86,0,0,0,.34,2.74.17.17,0,0,1,0,.14.22.22,0,0,1-.1.09c-2.28.66-2.77-.32-3.29-1.35a3,3,0,0,0-1.88-1.88h0c-1.78-.92-2.95-1.2-3.69-.9s-1.07,1.3-1.47,2.53a14,14,0,0,1-1.33,3.15l0,0c-.24.21-.36.4-.35.54s.39.41.73.6l.45.26s0,0,0,0a.44.44,0,0,1,.05.61,3,3,0,0,1-2.43.79s-.05,0-.07-.06c-.1-.2-.3-.51-.53-.86-.83-1.27-2-3-1.48-3.92a.18.18,0,0,1,.17-.09c.85.15,1.1.11,1.16.05s0-.2,0-.35c-.11-.62-.29-1.65,1.59-2.79a1,1,0,0,0-.24-.71c-.26-.23-.75-.17-1.27-.1l-.19,0a.15.15,0,0,1-.14-.05c-.9-1.06-2.5-2-3.71-1.75a1.84,1.84,0,0,0-1.32,1.46c1.08,1.4.52,2.91.07,4.13-.52,1.42-.76,2.25.49,2.78a2.37,2.37,0,0,1,2.2,1.9,2.7,2.7,0,0,0,1.26,1.7.12.12,0,0,1,.06.06.86.86,0,0,1,.09.69c-.16.49-.8.78-1.22,1l0,0h-.1a.35.35,0,0,0-.32.05c-.45.34-.56,1.78-.65,3.06-.12,1.53-.22,2.85-.83,3.1-.28.11-.6,0-1-.38-1.34-1.06-2.46-.37-3.75.42-1,.64-2.14,1.31-3.41,1-2.36-.69-3.95-.72-4.87-.11s-1.21,2.21-1.41,3.95c-.27,2.39-.61,5.38-3.58,7.11l-.06,0A21.88,21.88,0,0,1,237.44,355.12Zm-9.28-12.79c-.83,4.27-.23,7.66,1.75,9.79,2.13,2.28,5.79,3.13,10.6,2.44,2.8-1.65,3.11-4.41,3.39-6.85.21-1.82.39-3.39,1.56-4.18,1-.68,2.64-.66,5.12.07a4.23,4.23,0,0,0,3.16-1c1.28-.79,2.61-1.6,4.12-.4h0c.2.19.48.4.66.32.43-.17.53-1.57.62-2.81.11-1.48.22-2.88.79-3.3a.63.63,0,0,1,.53-.12c.37-.17.92-.43,1-.78a.47.47,0,0,0,0-.38,3,3,0,0,1-1.36-1.85,2.07,2.07,0,0,0-2-1.69h0c-1.61-.68-1.16-1.91-.68-3.21s1-2.6-.07-3.86a.2.2,0,0,1,0-.15,2.17,2.17,0,0,1,1.57-1.78c1.31-.3,3,.68,4,1.79l.11,0c.6-.07,1.16-.14,1.52.18a1.33,1.33,0,0,1,.35,1.05.18.18,0,0,1-.08.15c-1.76,1-1.61,1.91-1.51,2.49,0,.26.08.48-.07.64s-.53.2-1.32.07c-.24.79.85,2.46,1.51,3.48.22.33.4.62.52.83a3.13,3.13,0,0,0,2-.71c.06-.08.05-.12,0-.17l-.41-.24c-.42-.23-.86-.47-.9-.86s.12-.51.44-.8a14,14,0,0,0,1.28-3.06c.42-1.31.76-2.35,1.66-2.73s2.05-.07,3.95.91a3.33,3.33,0,0,1,2.06,2c.5,1,.86,1.73,2.74,1.23a6.28,6.28,0,0,1-.3-2.71c.06-1.58.11-2.95-2.2-4.29-4.87-.85-4.67-2.59-4.48-4.12.14-1.21.26-2.17-2.27-2.58l-.07,0a4.79,4.79,0,0,0-1.2-.52,8.57,8.57,0,0,1-.89-.33A2.54,2.54,0,0,1,263,316a1.7,1.7,0,0,1-1.76-.82c-.16-.34-.27-1.06.74-2.1l0,0c2-1.19,4.69-4.36,4.34-6.84,0,0,0-.05,0-.07a7.45,7.45,0,0,1,1.35-2.25c.89-1.17,1.73-2.27,1.25-3.7v0a2.92,2.92,0,0,0-.53-1.32c-.19-.29-.33-.52-.24-.76s.35-.33.89-.44a.15.15,0,0,1,.13,0,.14.14,0,0,1,.06.11,6.88,6.88,0,0,0,.81,2.07,2.67,2.67,0,0,0,0-.66.13.13,0,0,1,0-.06,3.82,3.82,0,0,0-.89-3.58A1.33,1.33,0,0,0,268,295c-.48.15-.84.78-1,1.84a.11.11,0,0,1,0,.07c-.5.67-.91,1-1.27.92s-.66-.56-.91-1.1-.47-1-.86-1.16a.94.94,0,0,0-.76.15l-.06,0c-.66.09-1.36.22-2.09.36-2.68.52-5.44,1.05-7.39-.75a1.81,1.81,0,0,0-.78,1.53.78.78,0,0,0,.6.74,1.63,1.63,0,0,1,1.21.49,1.48,1.48,0,0,1,.05,1.2,3.5,3.5,0,0,0-.05,1.59c.48.55.35,1,.26,1.12a.85.85,0,0,1-.9.42,1,1,0,0,1-.71-.48c-.6,1.77-1,3.37-1.41,4.79-.87,3.27-1.45,5.43-3.23,6.26a4.16,4.16,0,0,1-1.79.36c-2.48,0-6.5-1.47-13.59-4.87-1.39,0-1.54-.77-1.71-1.58a2.79,2.79,0,0,0-2.17-2.49l0,0a.7.7,0,0,1-.33-.45,1.12,1.12,0,0,1,.35-.81,1.41,1.41,0,0,0,.32-.58v-.06c-.07-.58-.18-1.56-.65-1.92a.61.61,0,0,0-.53-.12h0c-.37,0-.82.13-.92.45s.36,1.07.88,1.49a.16.16,0,0,1,.06.12.15.15,0,0,1-.05.13c-2.72,2.59-3.58,1.78-4.27,1.13-.25-.24-.47-.45-.76-.43s-.93.46-1.63,1.34l0,0c-2.18,1.85-1.51,2.94-.74,4.2a3.79,3.79,0,0,1,.75,3.35h0a3,3,0,0,0-.18,1.4c0,.36,0,.68-.2.88s-.65.24-1.47.1a2.13,2.13,0,0,1-1.81.05,2.24,2.24,0,0,0-1.56-.08c-.21.56-.85.51-1.33.47H215a7.5,7.5,0,0,0-2,.78c-1.14.6-2,1-4-.38h0a3.52,3.52,0,0,0-1.44.29c-.66.25-1.07.34-2.23-.61a.6.6,0,0,0-.1.45c.14.51,1.16.92,2.15,1.32s2.21.88,2.46,1.59a1,1,0,0,1,0,.7c3,2.17,3.76,4.38,4.66,7.17a31.8,31.8,0,0,0,1.91,4.84.19.19,0,0,1,0,.08c-.08,2.31,1.29,5.56,3.64,6.77l0,0c.89.67.83,1,.63,1.35s-.28.55.52,1.41c.39.19.66-.06,1.07-.48s.89-.92,1.64-.59a.1.1,0,0,1,.05,0,4.14,4.14,0,0,0,2.22.76c1,.16,1.88.32,2.15.86A1,1,0,0,1,228.16,342.33Z" transform="translate(-33.88 -157.61)"/><path class="cls-6" d="M323.64,275.76c-.85,1-2.21.84-3.1,1.68.56.88.26,1.12-.5,1.68-7.62,1.93-6.09-4.25-1.44-2.08C320.2,277.64,321.39,272.87,323.64,275.76Z" transform="translate(-33.88 -157.61)"/><path class="cls-4" d="M317.38,279.66c-1.84,0-2.47-.73-2.64-1a1.26,1.26,0,0,1,.17-1.52c.57-.65,1.89-1.09,3.75-.22.54.19,1.07-.38,1.63-1s1.21-1.29,2-1.25a2.14,2.14,0,0,1,1.51,1,.17.17,0,0,1,0,.21,3.61,3.61,0,0,1-1.72,1,3.86,3.86,0,0,0-1.29.62c.54.93.1,1.26-.62,1.78l-.05,0A11.07,11.07,0,0,1,317.38,279.66Zm-.67-2.93a2,2,0,0,0-1.56.59,1,1,0,0,0-.14,1.14c.44.74,2,1.26,5,.51.74-.55.91-.69.44-1.45a.17.17,0,0,1,0-.2,3.9,3.9,0,0,1,1.51-.78,3.47,3.47,0,0,0,1.49-.79,1.7,1.7,0,0,0-1.18-.76c-.62,0-1.18.57-1.73,1.15s-1.24,1.33-2,1.05h0A4.37,4.37,0,0,0,316.71,276.73Z" transform="translate(-33.88 -157.61)"/><path class="cls-7" d="M237.6,214.38c1.57,2.32.34,2.61,3.6,3.21,2.89,2.35,3.54,3.77,7.38,2,2.09,1.38,5.25,1.53,7.17-.43.34-.6.39-1.91,1.41-1.61,1.68-.05,3.93,2.62,5.18.62,1.6.2,3.59.51,4.61-1,1,.39,0,1.44.11,1.92,1-.17,3-1.22,3.36.14.34,2,5,3.88,4.61,6.47.92,1.3,3.65-1.17,3.46,1.46,1.17,2.3-1.17,3.21-.76,5.1.84,1.15.51,6.3,2.7,4.13.5-.07,2.6-.43,2.45.52-.35,1.43.73-.56,2.43-.3,1.53-.32.67-.15.73,1,1.08,2.67,1.28,5.33,2.28,8,2,1.32,1.51,4.51,2.9,6.19,2.11,2.8.44,5.67,0,8.5,1.59,2.9.37,7-.08,9.64-1.13-.53-2.53.4-1.22,1.33,2.25.86-.54,2.44,0,3.65.27,1.69-2.95-.87-2.47,1,2.11,2.91-2.18,5-.13,5.28,2.27,1.32-1.86,2.5-1.28,7.17-1.4.31-3.55,2.84-4.35.71-.85-.63-1.32,1.34-2.18.5-2.19-2.74,3.14-4.91-.49-6-.1-.34-.78-1.65,0-1.61,6.37-.88.88-1.21-.79-5-1.91-1.33-6.13-.55-6.12-3.78.66-1.74-4-2.43-.85-2.69,1.45-.2,1.5-2.72,1.77-3.77.07-1.81-4.2-.73-5.33-.89-1.21,1.43.09,4.2-2.86,3.59-13.9,8.14-5.61,2.18-14.62,1.23.19-1.29-2.5-.5-1.67-2.23.68-2.65-10.11-1.7-9.66-3.65-.2-1.64-1.68,1.55-2.73-1.92-.53-.71,2-4.93-.3-2.7-.58-3.16,3.41-3.76,2.17-7,1.46-3.1-.11-1.69-.72-3.71,1.16-.74-.71-2-1.07-2.78.4-6.34-3,2.93-3.37-2.18-4.72-7.21-4.2-2.27-8.94-.31-8.37,1.87,3-17.46,8.8-13.48C233,225.44,235.16,219.65,237.6,214.38Z" transform="translate(-33.88 -157.61)"/><path class="cls-4" d="M282.63,290.22a1,1,0,0,1-.36-.06,1.36,1.36,0,0,1-.76-.85c-.25-.16-.45,0-.81.32s-.79.74-1.35.2h0c-1.14-1.42-.38-2.7.22-3.72.36-.6.67-1.12.52-1.52s-.49-.54-1.15-.74a.15.15,0,0,1-.11-.11l-.09-.24c-.23-.57-.42-1.11-.21-1.41a.47.47,0,0,1,.4-.18c.7-.09,2.77-.38,2.85-.71,0-.14-.45-.51-.89-.83a8.41,8.41,0,0,1-2.87-3.15,7.36,7.36,0,0,0-2.45-.82c-1.82-.41-3.71-.83-3.71-3.07,0,0,0,0,0-.06.26-.68-.45-1.19-1.27-1.69-.46-.29-.74-.46-.68-.7s.36-.33,1.24-.41c1-.14,1.29-1.69,1.48-2.82.05-.3.09-.58.15-.8a.66.66,0,0,0-.19-.5c-.56-.54-2.25-.38-3.48-.27a10,10,0,0,1-1.43.07,3.62,3.62,0,0,0-.56,1.72,2.4,2.4,0,0,1-.72,1.71,2.11,2.11,0,0,1-1.62.17c-5.37,3.14-7.45,4.2-8.54,4.2-.59,0-.88-.31-1.25-.78-.57-.73-1.43-1.84-4.87-2.21a.11.11,0,0,1-.11-.06.13.13,0,0,1,0-.12c.05-.43-.27-.55-.81-.72s-.82-.26-1-.62a1.09,1.09,0,0,1,.11-.92.65.65,0,0,0-.09-.53c-.55-.83-3-1.15-5.12-1.42s-3.91-.51-4.36-1.17a.63.63,0,0,1-.1-.48c0-.25-.09-.31-.12-.33s-.24,0-.4.1a1.36,1.36,0,0,1-1.13.08,2.63,2.63,0,0,1-1.06-1.7c-.23-.35,0-1.06.35-2.11a7,7,0,0,0,.32-1.12,3,3,0,0,0-.71.58.16.16,0,0,1-.27-.08,3.94,3.94,0,0,1,1.24-3.47c.8-1,1.55-1.9.93-3.52a.2.2,0,0,1,0-.13c.84-1.8.63-2,.22-2.26a2.19,2.19,0,0,1-1-1.33.18.18,0,0,1,.07-.19.57.57,0,0,0,.29-.38c.06-.4-.41-.93-.82-1.4a4.33,4.33,0,0,1-.6-.79.24.24,0,0,1,0-.08c.12-1.79-.1-2.09-.2-2.13s-.63.4-1,.75c-.52.56-1.07,1.13-1.54.95s-.58-.67-.65-1.68c-1.63-2.48-2.67-3.58-3.5-3.68-.63-.07-1.17.44-1.92,1.15a10.52,10.52,0,0,1-3.31,2.31h0c-1.85.41-2.6-.24-2.91-.85-.54-1.08-.19-3,.95-5.34a20.76,20.76,0,0,1,4.47-6c2.33-2.09,4.49-2.71,6.12-1.78.37-4.52,2-9.83,4.95-16.23a.18.18,0,0,1,.14-.1.19.19,0,0,1,.14.07,9.13,9.13,0,0,1,.89,1.67c.35.85.44,1.08,2.61,1.48a.09.09,0,0,1,.07,0c.42.34.81.67,1.14,1,2,1.71,2.89,2.49,6.08,1a.14.14,0,0,1,.15,0c1.93,1.28,5,1.58,7-.39a3.74,3.74,0,0,0,.21-.52c.19-.59.47-1.4,1.35-1.15a4.81,4.81,0,0,1,2.07.7c1.2.61,2.24,1.13,2.95,0a.16.16,0,0,1,.16-.07l.17,0c1.57.2,3.36.42,4.28-.95a.17.17,0,0,1,.19-.06.85.85,0,0,1,.5.44,1.37,1.37,0,0,1-.14,1,3.24,3.24,0,0,0-.14.4l.57-.16a3.23,3.23,0,0,1,2.29-.2,1,1,0,0,1,.5.65v0c.13.79,1.06,1.6,2,2.46,1.3,1.15,2.78,2.45,2.58,4,.34.42,1,.3,1.61.18s1.17-.22,1.53.11a1.39,1.39,0,0,1,.31,1.19,3,3,0,0,1-.27,3.1,2.88,2.88,0,0,0-.5,2,6.22,6.22,0,0,1,.59,2.07c.2,1.08.42,2.31.93,2.47.22.07.54-.08.92-.46a.13.13,0,0,1,.09-.05h.08c.9-.13,2-.24,2.4.19a.58.58,0,0,1,.15.53h0c0,.13-.05.22-.06.28l.22-.14a3.08,3.08,0,0,1,2.1-.65c.76-.16.91-.19,1-.05s.05.24,0,.4a2.14,2.14,0,0,0-.13.81,27.78,27.78,0,0,1,1.22,4.22,31,31,0,0,0,1,3.75c1.12.79,1.46,2.16,1.8,3.49a6.78,6.78,0,0,0,1.08,2.7c1.66,2.21,1.06,4.45.48,6.62-.17.65-.35,1.31-.46,2,1.33,2.5.65,5.91.15,8.4-.09.46-.18.9-.25,1.3a.13.13,0,0,1-.08.11.14.14,0,0,1-.14,0,1.2,1.2,0,0,0-1.47.23c-.13.23,0,.53.39.8a1.45,1.45,0,0,1,.94.79,2,2,0,0,1-.46,1.53c-.29.5-.59,1-.42,1.41a.06.06,0,0,1,0,0,.69.69,0,0,1-.15.66c-.28.26-.78.12-1.32,0-.39-.1-.86-.23-1-.1s-.06.22,0,.44c1.24,1.73.32,3.18-.29,4.14-.22.35-.46.72-.39.87s.19.14.42.18l.06,0a1.39,1.39,0,0,1,.75.83c.11.48-.22,1-.63,1.62a6.64,6.64,0,0,0-1.32,4.84.15.15,0,0,1-.12.18,5.68,5.68,0,0,0-1.44.72A4.38,4.38,0,0,1,282.63,290.22Zm-1.33-1.3a.75.75,0,0,1,.44.15.22.22,0,0,1,.05.08,1.11,1.11,0,0,0,.58.7c.53.19,1.31-.29,2.05-.75a6.92,6.92,0,0,1,1.4-.72,7.05,7.05,0,0,1,1.38-4.93c.37-.56.66-1,.58-1.36a1.07,1.07,0,0,0-.56-.6c-.23,0-.54-.12-.64-.36s.09-.68.41-1.19c.6-.94,1.42-2.23.28-3.79a.14.14,0,0,1,0-.06c-.1-.37-.07-.62.09-.78s.77-.13,1.3,0,.88.23,1,.1a.44.44,0,0,0,.05-.35c-.23-.55.11-1.13.45-1.69s.54-.91.42-1.26-.33-.42-.76-.59l0,0c-.8-.57-.58-1.1-.5-1.25a1.46,1.46,0,0,1,1.69-.44c.07-.35.14-.72.22-1.1.52-2.6,1.16-5.83-.15-8.24a.12.12,0,0,1,0-.1,20.8,20.8,0,0,1,.48-2c.58-2.19,1.14-4.26-.42-6.33a7.12,7.12,0,0,1-1.14-2.83c-.33-1.29-.66-2.62-1.72-3.33a.12.12,0,0,1-.06-.08,30.77,30.77,0,0,1-1.07-3.84,27.87,27.87,0,0,0-1.21-4.19.13.13,0,0,1,0-.06,2.62,2.62,0,0,1,.14-1l0,0-.67.14h0s0,0-.06,0a2.74,2.74,0,0,0-1.91.6c-.29.18-.46.3-.61.18s-.12-.31,0-.67a.25.25,0,0,0-.07-.24c-.23-.24-1-.27-2.12-.1h0c-.47.45-.87.61-1.21.5-.69-.22-.91-1.43-1.15-2.72a6.05,6.05,0,0,0-.55-2l0-.06a3.11,3.11,0,0,1,.53-2.22,2.66,2.66,0,0,0,.25-2.84.15.15,0,0,1,0-.09,1.2,1.2,0,0,0-.2-1c-.25-.22-.74-.13-1.26,0-.71.13-1.52.29-2-.36a.24.24,0,0,1,0-.12c.23-1.39-1.14-2.59-2.46-3.76-1-.9-2-1.75-2.15-2.64a.71.71,0,0,0-.33-.46c-.48-.26-1.35,0-2.05.23a6.75,6.75,0,0,1-.79.21.15.15,0,0,1-.18-.11,1.26,1.26,0,0,1,.15-.77c.12-.29.24-.59.15-.79a.47.47,0,0,0-.21-.21c-1.06,1.41-3,1.17-4.51,1h-.07c-.87,1.27-2.17.62-3.32,0a4.64,4.64,0,0,0-1.94-.67h-.05c-.56-.17-.75.24-1,.93a3,3,0,0,1-.24.6l0,0c-2,2.07-5.25,1.8-7.29.49-3.31,1.48-4.33.6-6.33-1.13-.33-.29-.7-.61-1.11-.94-2.2-.41-2.4-.68-2.81-1.66a8.69,8.69,0,0,0-.69-1.37c-2.93,6.38-4.51,11.65-4.83,16.12a.19.19,0,0,1-.09.14.15.15,0,0,1-.16,0c-2.05-1.41-4.61.4-6,1.6-3.62,3.24-6.37,8.84-5.34,10.9.37.74,1.22,1,2.54.69a10.35,10.35,0,0,0,3.2-2.25c.78-.74,1.4-1.32,2.18-1.23.94.11,2,1.23,3.75,3.85a.19.19,0,0,1,0,.08c.09,1.15.32,1.4.45,1.44.28.11.79-.43,1.2-.86s.95-1,1.33-.83.51.49.4,2.4a4.25,4.25,0,0,0,.53.68c.46.52,1,1.11.9,1.66a.85.85,0,0,1-.34.55,1.93,1.93,0,0,0,.8,1.05c.6.44.75.78-.09,2.6.64,1.76-.2,2.78-1,3.78a3.79,3.79,0,0,0-1.22,2.89c.48-.43.72-.55.9-.43s.11.61-.21,1.53c-.22.64-.55,1.61-.38,1.83l0,.05c.25.84.55,1.36.89,1.52a1,1,0,0,0,.88-.09c.25-.1.48-.19.68-.07s.24.28.28.59V265a.28.28,0,0,0,0,.25c.37.54,2.28.79,4.13,1,2.32.3,4.71.61,5.35,1.56a1,1,0,0,1,.12.82,0,0,0,0,1,0,0,.91.91,0,0,0-.11.66c.1.22.43.33.77.44s1,.32,1,.91c3.46.39,4.35,1.54,4.95,2.3.45.59.68.88,1.8.51s3.24-1.48,7.62-4a.2.2,0,0,1,.11,0,1.87,1.87,0,0,0,1.44-.1c.39-.28.48-.84.58-1.5a3.8,3.8,0,0,1,.69-1.94.14.14,0,0,1,.14-.05,8.13,8.13,0,0,0,1.45-.07c1.37-.12,3.07-.28,3.73.37a.93.93,0,0,1,.29.76,0,0,0,0,1,0,0c0,.21-.1.49-.15.79-.2,1.23-.48,2.92-1.75,3.1a3.7,3.7,0,0,0-.94.15,3,3,0,0,0,.5.35c.71.43,1.77,1.08,1.43,2.06,0,1.95,1.68,2.32,3.45,2.72a7.27,7.27,0,0,1,2.6.9l.06.07a8.12,8.12,0,0,0,2.78,3.06c.69.5,1.1.81,1,1.17s-.6.61-3.13,1h0c-.07,0-.12,0-.14,0-.12.18.14.82.25,1.1a1.71,1.71,0,0,0,.07.18c.72.24,1.13.53,1.28.92s-.16,1.15-.54,1.79c-.58,1-1.24,2.1-.26,3.34.3.29.5.16.9-.21A1.31,1.31,0,0,1,281.3,288.92Z" transform="translate(-33.88 -157.61)"/><path class="cls-8" d="M237.6,214.38c-.4-6.52,2.11-10.31,8.55-7.65,1.57.2.48-2,1.8-2.52,2.88-1.21,3.76,2.3,4.93,3.78,2.13,5.36,4.42-13.06,6.66-9.38,1.61,3.11,4.47.44,5.38,4.41,2.18,2.82,5.56.81,8.32.2,2.58-1.29.82-2.58,2.79-2,2.24,1.09,1,4.31,3.18,2.25,3.63.39,1.89-2.07,5.6-.06,2.42-.94,2.68,2.14,4.14.61.21-.06.82-.12.3.14.42,2.7-3.93-.39-4.57,2,1,.34,2.18-.14.75,1.23-.1.25-.6,1-.33,1.17,1.89.07.09.42.49,1.16,1.18-.43.93.86.89,1.66.77.67.28,2.11.14,3-.3.88,1.35,4-.67,3.16-1,2.77,0,5.18.67,7.62-2,3.58.85,2.49,1.31,4.71.17,1.93-2.31,3.1-1.26,5.07.6,2.42-2.76,1.44-3.9,2.62.66-1.51-1.09-1.09-1.89-1.18-2.82,2.2-2.36-2.82-3.26-4.56,1.05-3.08,1.62-1.88.71-5.53-.45-1-2.41.46-3.19-.28.13-1.91-2.86-4.62-4.27-5.65-.83-2.27-1.62-1.83-3.81-1.18,1.5-3.92-3.91,1.69-9.9-1.55-1.31-.32-1,1.6-1.85,2-3.18,2-4.36.75-7.19,0-2.44,1.81-4.85,0-6.64-2C237.9,216.77,239.37,217.25,237.6,214.38Z" transform="translate(-33.88 -157.61)"/><path class="cls-4" d="M282.77,237.68l-.09,0a.19.19,0,0,1-.06-.21c.15-.32.17-.56.08-.7s-.75-.24-1.22-.24a3.43,3.43,0,0,1-.56,0c-.64.5-1.17.65-1.6.48-.81-.31-1.05-1.69-1.3-3a8.61,8.61,0,0,0-.54-2.1.15.15,0,0,1,0-.13,13.79,13.79,0,0,1,.79-1.89c.45-.89.53-1.05-.09-3.53-.17-.38-.64-.3-1.38-.13s-1.33.32-1.76-.09a.13.13,0,0,1,0-.13c.12-1.7-2.52-4.28-4.21-5.51l-.06-.07c-.71-2-1.33-1.78-3.16-1.21l-.44.13a.16.16,0,0,1-.16,0,.17.17,0,0,1,0-.18c.31-.78.27-1.06.19-1.15s-.88,0-1.69.22c-1.88.51-5,1.37-8.31-.41-.57-.13-.73.24-1,.88a1.81,1.81,0,0,1-.76,1.15c-2.54,1.6-3.85,1.16-5.65.56a15.72,15.72,0,0,0-1.58-.48c-2,1.43-4.27.76-6.75-2l-.34-.09c-2.17-.56-2.25-.58-2.69-1.57a12.68,12.68,0,0,0-.91-1.73.19.19,0,0,1,0-.07c-.24-3.87.55-6.59,2.29-7.86,1.52-1.11,3.69-1.09,6.46,0,.63.08.71-.26.81-.95s.18-1.27.89-1.56c2.33-1,3.43,1,4.32,2.54a9.53,9.53,0,0,0,.8,1.28l0,0c.23.58.47.89.68.89h0c.72,0,1.65-2.92,2.4-5.24,1.09-3.42,1.83-5.5,2.73-5.61.3,0,.57.16.82.57h0a3.13,3.13,0,0,0,2.6,1.74,3,3,0,0,1,2.78,2.67c1.65,2.09,4,1.35,6.28.64.65-.2,1.26-.39,1.85-.52,1.22-.61,1.4-1.21,1.52-1.6.17-.57.39-.7,1.36-.41h0a3.28,3.28,0,0,1,1.61,2.17c.12.37.22.69.38.73s.51-.16,1-.62a.18.18,0,0,1,.12,0,3,3,0,0,0,2.5-.49c.64-.45,1.11-.65,3.1.42a2.31,2.31,0,0,1,2.55.61c.55.46.85.71,1.46.07l.07,0c.06,0,.61-.16.7.08s-.06.24-.17.31a1.13,1.13,0,0,1-.23,1c-.39.41-1.13.32-1.93.22-1-.13-2-.26-2.39.6a4.84,4.84,0,0,0,.63.1c.36,0,.64.07.72.3s-.1.5-.67,1a1.48,1.48,0,0,1-.11.22c-.24.46-.28.63-.27.69.65,0,.88.09.95.26s-.07.3-.19.43-.26.28-.25.42a.74.74,0,0,1,.7.09c.36.27.31.92.27,1.49,0,.08,0,.15,0,.23.64.62.42,1.7.23,2.58,0,.17-.07.34-.09.48a0,0,0,0,1,0,0,3.56,3.56,0,0,0,.16,1.37c.19.83.36,1.62,0,1.94a.85.85,0,0,1-.86,0c-.79,2.32-.16,4.43.46,6.47l.27.89a.19.19,0,0,1,0,.13c-1.15,2.09-.63,2.45.1,3a2.54,2.54,0,0,1,1.23,1.63v0a3.82,3.82,0,0,1-.8,2.33c-.55.89-1,1.65-.47,2.68,0,0,0,0,0,0a1.57,1.57,0,0,1-.11,1.25c-.36.57-1.15.71-2,.85a3.48,3.48,0,0,0-1.85.67A.16.16,0,0,1,282.77,237.68Zm-1.06-1.49c.51,0,1,0,1.26.38a.76.76,0,0,1,.1.53,5,5,0,0,1,1.62-.46c.76-.13,1.48-.26,1.76-.71a1.23,1.23,0,0,0,.07-1c-.62-1.19,0-2.11.5-3a3.53,3.53,0,0,0,.75-2.11,2.2,2.2,0,0,0-1.09-1.42c-.77-.53-1.49-1-.23-3.33-.08-.27-.16-.55-.25-.82-.64-2.14-1.31-4.35-.4-6.84a.2.2,0,0,1,.09-.09.15.15,0,0,1,.13,0c.34.15.58.18.69.09s.05-1-.09-1.61a3.53,3.53,0,0,1-.16-1.53c0-.15.06-.32.1-.49.17-.82.38-1.83-.19-2.32a.13.13,0,0,1-.05-.13c0-.1,0-.21,0-.32,0-.46.08-1-.14-1.21s-.3-.07-.56,0a.15.15,0,0,1-.19-.07.77.77,0,0,1,.26-.94l.07-.07a4.35,4.35,0,0,0-.68-.07.16.16,0,0,1-.09,0c-.32-.23,0-.75.16-1.14a2.21,2.21,0,0,0,.11-.22l0-.06c.52-.49.6-.66.6-.71a1.34,1.34,0,0,0-.44-.09,3.67,3.67,0,0,1-.86-.16.17.17,0,0,1-.1-.2c.35-1.29,1.71-1.12,2.79-1,.71.09,1.38.18,1.66-.11a1,1,0,0,0,.12-.81v0H289c-.8.81-1.34.36-1.86-.08a2,2,0,0,0-2.3-.53.14.14,0,0,1-.14,0c-2-1.07-2.31-.83-2.82-.47a3.32,3.32,0,0,1-2.65.56c-.58.53-1,.73-1.25.65s-.45-.46-.61-.94a2.94,2.94,0,0,0-1.43-2c-.82-.24-.84-.15-1,.2a2.77,2.77,0,0,1-1.7,1.8h0c-.59.13-1.2.32-1.84.52-2.28.72-4.87,1.52-6.65-.77a.11.11,0,0,1,0-.07c-.46-2-1.43-2.23-2.54-2.45a3.46,3.46,0,0,1-2.82-1.92c-.18-.29-.35-.42-.52-.4-.76.09-1.66,2.9-2.46,5.38-1.08,3.38-1.81,5.44-2.69,5.47-.37,0-.69-.34-1-1.07a10.86,10.86,0,0,1-.81-1.3c-.91-1.61-1.85-3.28-3.92-2.41-.53.22-.61.75-.69,1.3s-.2,1.36-1.19,1.24h0c-2.67-1.11-4.75-1.14-6.17-.09-1.64,1.19-2.38,3.79-2.16,7.53a12.31,12.31,0,0,1,.9,1.73c.38.84.38.84,2.48,1.38l.38.1.08.05c2.43,2.72,4.53,3.35,6.42,1.95a.17.17,0,0,1,.14,0c.62.16,1.18.34,1.67.5,1.79.6,3,1,5.39-.52h0a1.64,1.64,0,0,0,.6-1c.2-.58.46-1.3,1.35-1.08h0c3.18,1.73,6.26.89,8.1.39,1-.28,1.71-.46,2-.12s.19.57,0,1.18l.13,0c1.81-.55,2.72-.84,3.54,1.37,1.27.93,4.36,3.65,4.3,5.67.32.23.88.1,1.42,0s1.46-.34,1.75.33c0,0,0,0,0,0,.64,2.54.57,2.78.07,3.78a14.13,14.13,0,0,0-.75,1.78,9.67,9.67,0,0,1,.54,2.13c.23,1.25.46,2.53,1.09,2.78.33.13.78,0,1.35-.47a.16.16,0,0,1,.12,0,5,5,0,0,0,.58,0Z" transform="translate(-33.88 -157.61)"/><path class="cls-3" d="M218.77,243.32c3.2-2,1-.17,3.52,1.32,1.84,0,3.4-1.21,4.76-2.46.45-.46.4-1.72,1.33-1.33,2.1.15,4.09,2.33,4.51,4.53s2.06-1,3.17-1.11c-.69,3.56,2.22,3,1,5.62.51.48,1.71,1.13,1.45,2-1.63,2.8,1.06,3.36-2.23,5.7-.38,1.37-1.48,3.12.4,2.13.4,1.47-1.95,2.49.18,4.8,1.4.81,1.65-1.31,2.08,1.25.87.19,8.16.62,7.27,1.77-1,2.6-4-2-5.63.06-.69.77-.35,1.18-1.59.62,1.2-4.19-2.25-.14-3.1,1.37-3.83,3.4-2.72-1.78-2.76,5.59.19,3.65,4.9,4.18-1.09,9.2-.34-1.89-.36-.75-1.21-1.37-1.14-2.23-.54-1.16-2.54-1.6-.33-.5,0-2-.85-2.13-1.16.49-2.56-2.51-3.32-3.11-4.83-6.21-5.93-2.22-7.22-4.22.58-.85-2.88-1.1-2.09-.27C213,284.49,209,269.59,207.7,283c-11.45,3.42,1.51-14.58-1.71-19.41,4.38-10.49,7.1.15,8.6-3.89.86-.77,2.16-1.48.76-2.49,0-.89,1.69-3.44.58-4.13-.61-1,2.06-4.45,1.76-5.45C216.89,246.23,217,243.85,218.77,243.32Zm16.46,44.27c-1-.41-.47-.65.18-1C236.16,287.17,236.27,287.42,235.23,287.59Zm2.73-6.43c-1.92.88-1.5-3.63.41-2C238.69,280.07,236.84,279.33,238,281.16Zm-5,5.09c1.18-.47.39,1.21,1.54.83-.56.95.82,4.19-.5,1.83-.69-.61-.38-.49-1.07,0C230.36,289.4,231.26,285.42,233,286.25Z" transform="translate(-33.88 -157.61)"/><path class="cls-4" d="M234.58,289.92c-.14,0-.28-.2-.68-.9l-.2-.19a1.59,1.59,0,0,0-.19-.16l-.08.07a3.19,3.19,0,0,1-.38.31l-.06,0a1.38,1.38,0,0,1-1.64-.61,2,2,0,0,1,.32-2.1,1.13,1.13,0,0,1,1.33-.29.69.69,0,0,1,.58,0,.75.75,0,0,1,.35.54c0,.15.09.3.18.35a.54.54,0,0,0,.37,0,.15.15,0,0,1,.13,0,2,2,0,0,1,.73-.47.17.17,0,0,1,.17,0c.46.34.69.57.63.82s-.39.36-.88.44h-.09a1.28,1.28,0,0,1-.58-.39,5.23,5.23,0,0,0,.11,1.75c.1.55.13.74,0,.81Zm-1.07-1.59c.12,0,.23.1.41.26l.22.2,0,0c.09.17.17.3.23.4l0-.07a5.38,5.38,0,0,1-.11-1.86.53.53,0,0,1-.31-.06.83.83,0,0,1-.34-.55c-.05-.15-.09-.3-.18-.34a.53.53,0,0,0-.39,0,.15.15,0,0,1-.13,0,.8.8,0,0,0-1,.2,1.62,1.62,0,0,0-.28,1.71,1.09,1.09,0,0,0,1.27.45,2.44,2.44,0,0,0,.31-.26A.49.49,0,0,1,233.51,288.33Zm1.34-1.17s0,.09.4.26c.52-.09.58-.18.58-.19s-.05-.13-.44-.42c-.22.11-.52.27-.54.35Zm-2.77-2.64H232a.16.16,0,0,1-.11-.13,4.19,4.19,0,0,0-.24-1s0,0-.14,0a1,1,0,0,1-.77-.24.09.09,0,0,1,0-.06l-.09-.16c-.63-1.25-.63-1.25-1-1.23a4.5,4.5,0,0,1-1.31-.12.14.14,0,0,1-.1-.07,1.93,1.93,0,0,1-.21-.9c-.06-.64-.13-1.07-.5-1.15a.86.86,0,0,1-.27.05c-.81,0-1.62-1.16-2.29-2.11a6.68,6.68,0,0,0-.87-1.09l0,0c-3-3.91-4.56-3.71-5.57-3.57a1.39,1.39,0,0,1-1.66-.66.17.17,0,0,1,0-.18c.05-.08,0-.12,0-.14-.1-.2-.73-.38-1.32-.38h0c-.39,0-.57.08-.59.12h0s0,0,.08.11a.18.18,0,0,1,0,.14c-.46,3.23-1.11,5-2,5.6a2.19,2.19,0,0,1-1.95,0,1.75,1.75,0,0,0-1.56,0c-.78.53-1.29,2.36-1.61,5.77a.17.17,0,0,1-.12.14c-2.18.65-3.61.58-4.38-.23-1.44-1.52-.2-5.31,1.12-9.31s2.64-8,1.37-9.93a.18.18,0,0,1,0-.16c1.21-2.9,2.41-4.48,3.68-4.81s2.12.46,2.91,1.07c.55.44,1,.81,1.38.71s.44-.35.63-.84a.16.16,0,0,1,0-.07l.39-.33c.47-.38.94-.78.93-1.17,0-.23-.19-.48-.55-.74a.17.17,0,0,1-.07-.13,4.9,4.9,0,0,1,.42-1.36c.39-1,.88-2.24.25-2.63a.12.12,0,0,1,0-.05c-.38-.6.23-1.84.88-3.15a5.78,5.78,0,0,0,.86-2.33,3.86,3.86,0,0,1-.27-3.14,2.21,2.21,0,0,1,1.43-1.37c1.27-.81,1.67-1,1.94-.89s.27.29.35.53a2.68,2.68,0,0,0,1.34,1.67c1.76,0,3.26-1.18,4.61-2.42a2.09,2.09,0,0,0,.3-.58,1.33,1.33,0,0,1,.57-.82.79.79,0,0,1,.6,0c2.07.16,4.19,2.29,4.64,4.65.08.39.21.62.35.67s.75-.42,1.17-.85,1-1,1.48-1a.14.14,0,0,1,.13,0,.17.17,0,0,1,0,.14,3.2,3.2,0,0,0,.71,3.06,2.06,2.06,0,0,1,.38,2.48l.32.26c.56.44,1.32,1,1.08,1.81l0,0a3.64,3.64,0,0,0-.5,2.56c.11,1,.2,1.77-1.72,3.15-.09.3-.21.61-.32.91s-.42,1.12-.3,1.23.12.1.8-.26a.17.17,0,0,1,.14,0,.15.15,0,0,1,.09.1,2.31,2.31,0,0,1-.32,1.65,2.31,2.31,0,0,0,.45,3.07,1,1,0,0,0,1.09,0,.59.59,0,0,1,.53-.07c.22.12.35.46.5,1.3l1.24.14c3,.33,5.79.68,6.1,1.42a.46.46,0,0,1-.06.44,1.35,1.35,0,0,1-.74.83c-.61.23-1.33-.16-2.11-.56-1.06-.57-2.07-1.1-2.81-.2a3.48,3.48,0,0,0-.37.52c-.29.49-.47.57-1.4.15a.15.15,0,0,1-.09-.19c.42-1.49.16-1.63.15-1.63-.42-.18-2.22,1.81-3,3.12l0,0c-1.66,1.47-2.45,1.39-2.78,1.35h0c0,.09,0,.29,0,.53,0,.58.11,1.66.1,3.59a5.46,5.46,0,0,0,1.07,2.73c1,1.67,1.94,3.11-2.21,6.6A.15.15,0,0,1,232.08,284.52Zm-.49-1.5c.32,0,.43.19.6,1,3.7-3.17,2.92-4.42,1.93-6a5.87,5.87,0,0,1-1.11-2.9c0-1.93-.06-3-.1-3.58s0-.7.07-.81a.37.37,0,0,1,.31-.06c.29,0,1,.1,2.52-1.26.55-1,2.55-3.57,3.34-3.23.36.15.39.73.08,1.88.65.29.68.24.87-.08a3,3,0,0,1,.4-.56c.9-1.1,2.12-.46,3.2.11.71.38,1.38.73,1.85.55a1,1,0,0,0,.55-.67l0,0c.05-.07,0-.1,0-.12-.26-.63-4.17-1-5.83-1.22-.69-.08-1.19-.13-1.39-.17a.17.17,0,0,1-.12-.14c-.15-.89-.27-1.13-.35-1.17s-.14,0-.25.08a1.33,1.33,0,0,1-1.4,0l0,0a2.61,2.61,0,0,1-.52-3.45,2.4,2.4,0,0,0,.34-1.22c-.5.24-.8.27-1,.11s-.06-.84.22-1.58c.12-.32.24-.64.32-.94a.15.15,0,0,1,.06-.09c1.82-1.29,1.74-2,1.64-2.88a3.88,3.88,0,0,1,.54-2.75c.15-.55-.47-1-1-1.44A4.08,4.08,0,0,1,237,250a.15.15,0,0,1,0-.18,1.77,1.77,0,0,0-.29-2.25,3.45,3.45,0,0,1-.82-3.08,4.81,4.81,0,0,0-1,.9c-.54.55-1,1.06-1.49.93-.27-.08-.46-.38-.58-.91-.42-2.25-2.42-4.26-4.37-4.39l-.05,0a.45.45,0,0,0-.37,0c-.18.07-.29.34-.4.63a2.06,2.06,0,0,1-.38.7c-1.42,1.3-3,2.5-4.87,2.5h0a.11.11,0,0,1-.08,0,3,3,0,0,1-1.53-1.87c-.05-.16-.09-.3-.15-.32s-1,.41-1.67.87l0,0a1.86,1.86,0,0,0-1.25,1.18,3.54,3.54,0,0,0,.26,2.87.06.06,0,0,1,0,0c.16.52-.32,1.48-.87,2.59s-1.16,2.32-.92,2.8c.81.55.28,1.9-.15,3a6.53,6.53,0,0,0-.39,1.16,1.32,1.32,0,0,1,.62.94c0,.55-.53,1-1,1.43l-.36.3c-.22.58-.49.91-.82,1-.51.15-1.05-.27-1.67-.76s-1.64-1.28-2.63-1c-1.15.3-2.27,1.79-3.43,4.54,1.27,2.05-.08,6.16-1.39,10.14-1.23,3.74-2.49,7.6-1.19,9,.67.7,2,.76,4,.18.33-3.49.87-5.31,1.75-5.9a2,2,0,0,1,1.83,0,1.91,1.91,0,0,0,1.68,0c.82-.52,1.43-2.25,1.87-5.3a.35.35,0,0,1,0-.49c.35-.39,1.83-.24,2.3.14a.47.47,0,0,1,.17.56c.38.55.73.51,1.29.43,1.08-.14,2.71-.35,5.85,3.68a6.41,6.41,0,0,1,.92,1.15c.66.93,1.56,2.21,2.22,1.93a.14.14,0,0,1,.09,0c.69.1.76.85.81,1.45a2.5,2.5,0,0,0,.13.7,4.19,4.19,0,0,0,1.16.09c.6,0,.64.06,1.33,1.41l.06.13a.78.78,0,0,0,.53.16Zm-12.82-39.7Zm18.73,38.12a.84.84,0,0,1-.73-.42,1.9,1.9,0,0,1,.26-2.16c.22-.2.71-.45,1.44.18a.18.18,0,0,1,.05.07c.18.51-.19.67-.42.77s-.29.14-.33.26,0,.38.33.94a.19.19,0,0,1,0,.13.18.18,0,0,1-.09.1A1.25,1.25,0,0,1,237.5,281.44Zm.09-2.47a.54.54,0,0,0-.35.13,1.59,1.59,0,0,0-.2,1.75.56.56,0,0,0,.68.23,1.46,1.46,0,0,1-.26-1,.82.82,0,0,1,.51-.46c.24-.1.31-.14.26-.32A1.13,1.13,0,0,0,237.59,279Z" transform="translate(-33.88 -157.61)"/><path class="cls-3" d="M405.85,301.6c-14.8,14.49-29.59,29-43.13,44.73-9,3.59-20.67-2.5-30.05,7.13-.57,3-2.9,3.86-5.72,4-13.73.69-7.11,6-12.66,3.72-14.66,3.41-12.88-12.9-30.6,6.95-.61.7-1,3.07-1.95,1.14-.13-.46-2.73.18-2.14-.48-.23-.45-1,.45-1.47.23-4.69-1.25.95-1.41,1.65-3.19,2.41-2.75,1.94-6.26,3.68-9.06,9.61-28.38,2.11-7.58,19.5-20.9-.88-2.63-1.86-11.75.82-13.27,1.45-3.73,7.81,1.54,9.38,3.37,4-6.3,3.82,1,6.66-6.44-.22-2.54,2.93-4.48,2-7.3-3.16-1.75-6.68-1.13-4.05-6.13-.23-4.71-.36-11.89,4.93-13.88,1.37,2.74,4.28.34,4.2,5.09,2.11,5.57,1.74-2,4.88-1.94.72-3.48-.18-2.18-.93-4.42,1.23-2.53-.63-2.31-1.87-4.13-2.07-2.44-1.65-7.18-4.64-8.78.58-1.85-1.38-4.17-3.36-2.65-3.06,3.9-2.41-.41-4.93,1.45-1.9-.23-.69,2.79-1.55,2.7-3.27-1.87-1.6,1.11-5.82-.54-1.93-.47-7,5.53-7.51,1.64,4,.15.35-1.4-1.42-.79-.25-1.69,1.36-4.28,2.63-5.61,3.83-3.29,1.13-1.09.91-3.4,1.81-9,3.48-17.25,14.37-13.32,2.67-.1,10.83-3.94,12-1.2,1.27,1.24,3.09-1,2,1.37a6.34,6.34,0,0,0-2.66,3.69c-.65.83-1.35.23-.62,1.64C340.55,290.24,377,300.2,405.85,301.6Z" transform="translate(-33.88 -157.61)"/><path class="cls-4" d="M282.41,370.18c-.29,0-.54-.26-.82-.83h0a2.79,2.79,0,0,0-1-.07c-.7,0-1.07,0-1.17-.2a.26.26,0,0,1,0-.23,1.12,1.12,0,0,0-.39.16,1.14,1.14,0,0,1-.91.19c-1.6-.43-1.94-.71-2-1s.54-.62,1.33-.95,1.92-.79,2.18-1.45l0,0a11.17,11.17,0,0,0,2.2-5,13.68,13.68,0,0,1,1.45-4l1-2.82c2.28-6.76,3.43-10.15,4.26-11.81s1.43-1.66,2.56-1.47c1.55.26,4.43.74,11.68-4.79-.92-2.9-1.78-11.7.88-13.32a2,2,0,0,1,1.55-1.32c2.41-.42,6.5,2.94,7.94,4.53,1.92-2.94,2.92-2.8,3.73-2.69s1.38.19,2.79-3.5a5.82,5.82,0,0,1,1.08-3.24c.71-1.27,1.39-2.47.92-3.93a14.59,14.59,0,0,0-2.18-.92c-1.25-.45-2.33-.84-2.69-1.8-.31-.8-.06-1.93.79-3.56a30.11,30.11,0,0,1,.4-8c.71-3.11,2.27-5.14,4.63-6a.16.16,0,0,1,.2.07,2.91,2.91,0,0,0,2.06,1.55c1.13.36,2.2.7,2.16,3.59.6,1.57.94,1.91,1.12,1.91h0c.24,0,.52-.62.79-1.21.53-1.15,1.24-2.71,2.68-2.77.41-2.05.22-2.28-.15-2.73a4.19,4.19,0,0,1-.8-1.47.15.15,0,0,1,0-.13c.77-1.58.28-2-.53-2.63a5.91,5.91,0,0,1-1.31-1.33,11,11,0,0,1-1.77-4c-.59-2-1.16-3.87-2.82-4.76a.18.18,0,0,1-.08-.2,2.44,2.44,0,0,0-.89-2.59,1.78,1.78,0,0,0-2.21.11c-1.67,2.13-2.33,1.91-3.07,1.36-.44-.33-.86-.64-1.87.11l-.12,0a.8.8,0,0,0-.66.14c-.31.27-.33.88-.34,1.41s0,.86-.23,1.05a.4.4,0,0,1-.32.09l-.06,0c-1.52-.87-1.89-.65-2.36-.37s-1.21.71-3.43-.16c-.69-.15-1.92.65-3.11,1.42-1.49,1-2.89,1.87-3.78,1.45a1.6,1.6,0,0,1-.73-1.36.17.17,0,0,1,0-.13.17.17,0,0,1,.12-.05,3.86,3.86,0,0,0,1.61-.12,4.08,4.08,0,0,0-3-.35.15.15,0,0,1-.13,0,.15.15,0,0,1-.08-.11c-.26-1.76,1.41-4.43,2.68-5.75h0a17.18,17.18,0,0,0,2-1.82l-.13-.06a1.42,1.42,0,0,1-1-1.39v-.05c1.18-5.88,2.3-11.45,6-13.57,2.14-1.22,4.94-1.18,8.57.12a20.72,20.72,0,0,0,3.75-.89c3.51-1,7.48-2.19,8.4-.24a1.6,1.6,0,0,0,1.59.24c.32-.07.56-.13.71,0s.07.5-.27,1.25a.13.13,0,0,1-.06.07,6.17,6.17,0,0,0-2.58,3.59l0,.06a1.83,1.83,0,0,1-.69.54c-.12.06-.19.1-.21.14a2.13,2.13,0,0,0,.29.78c14.69,32.95,62.88,37.79,77.3,38.49a.16.16,0,0,1,.14.11.15.15,0,0,1,0,.17c-14.43,14.13-29.35,28.73-43.12,44.72a.18.18,0,0,1-.07.05c-3.45,1.37-7.22,1.34-11.22,1.3-6.38-.06-13-.13-18.73,5.75-.66,3.38-3.48,4-5.86,4.09-7.92.4-9,2.37-9.57,3.43-.49.89-.81,1.25-3.11.3a17.72,17.72,0,0,1-4,.49,16.56,16.56,0,0,1-7.6-2.07c-2.28-1.09-4.25-2-7-1.19-3.06.92-6.84,4-11.89,9.66a3.54,3.54,0,0,0-.45.81c-.28.58-.54,1.12-.95,1.12Zm-.52-1c.28.57.45.64.52.64h0c.21,0,.46-.53.66-.95a3.76,3.76,0,0,1,.5-.87c5.1-5.72,8.92-8.82,12-9.77,2.88-.87,4.91.09,7.25,1.21,2.78,1.33,5.93,2.83,11.41,1.55h.09c2.18.9,2.34.62,2.75-.14.65-1.19,1.75-3.19,9.85-3.6,3.37-.18,5.09-1.37,5.56-3.87a.22.22,0,0,1,.05-.08c5.86-6,12.54-6,19-5.89,3.94,0,7.67.07,11.06-1.26,13.69-15.89,28.51-30.41,42.85-44.45A150.87,150.87,0,0,1,383.23,299a116.53,116.53,0,0,1-22.45-6.82,74.12,74.12,0,0,1-19.31-11.69,49.28,49.28,0,0,1-13.2-17.36c-.29-.56-.37-.83-.3-1a.58.58,0,0,1,.37-.33,1.74,1.74,0,0,0,.56-.43,6.49,6.49,0,0,1,2.67-3.72c.28-.63.29-.81.28-.86a1.62,1.62,0,0,0-.37.06,1.92,1.92,0,0,1-1.92-.34l0-.05c-.78-1.74-4.8-.56-8,.38a19.85,19.85,0,0,1-3.86.91h-.06c-3.55-1.28-6.27-1.33-8.33-.15-3.56,2-4.66,7.52-5.83,13.33a1.11,1.11,0,0,0,.79,1.09c.15.06.31.12.34.29s-.25.55-2.09,2.13c-1.18,1.23-2.71,3.63-2.6,5.28a4.33,4.33,0,0,1,3.14.52.28.28,0,0,1,.06.33c-.08.17-.35.36-1.73.32a1.11,1.11,0,0,0,.52.91c.73.35,2.12-.55,3.46-1.42s2.56-1.66,3.37-1.46h0c2.09.82,2.66.48,3.17.18s1-.58,2.64.36l.05,0c.1-.09.11-.47.12-.81a2.22,2.22,0,0,1,.45-1.65,1.11,1.11,0,0,1,.85-.23c1.16-.83,1.74-.41,2.2-.06s1,.75,2.64-1.32l0,0a2.1,2.1,0,0,1,2.61-.13,2.79,2.79,0,0,1,1,2.83c1.7,1,2.29,3,2.87,4.89a10.7,10.7,0,0,0,1.7,3.86h0a5.39,5.39,0,0,0,1.25,1.27c.83.67,1.49,1.2.65,3a3.73,3.73,0,0,0,.73,1.31c.46.57.65.91.18,3.14a.16.16,0,0,1-.15.13h-.05c-1.29,0-1.94,1.43-2.47,2.58-.35.79-.64,1.41-1.08,1.41h0c-.44,0-.85-.64-1.42-2.15a.13.13,0,0,1,0-.06c0-2.68-.88-3-1.94-3.31a3.21,3.21,0,0,1-2.18-1.58c-4.62,1.85-5,7.66-4.69,13.67a.14.14,0,0,1,0,.09c-.82,1.55-1.08,2.61-.8,3.33s1.27,1.16,2.5,1.6a16.54,16.54,0,0,1,2.28,1,.18.18,0,0,1,.08.09c.55,1.64-.2,3-.93,4.27a5.5,5.5,0,0,0-1,3.08.09.09,0,0,1,0,.07c-1.44,3.78-2.13,3.89-3.14,3.75-.74-.11-1.65-.24-3.54,2.72a.14.14,0,0,1-.12.07.13.13,0,0,1-.13-.05c-1.22-1.43-5.46-5-7.78-4.59a1.68,1.68,0,0,0-1.33,1.17.18.18,0,0,1-.07.08c-2.57,1.46-1.63,10.43-.75,13.08a.17.17,0,0,1-.05.18c-7.43,5.69-10.42,5.19-12,4.92-1-.17-1.44-.24-2.22,1.3s-2,5-4.25,11.77l-1,2.84s0,0,0,0a13.45,13.45,0,0,0-1.42,3.91,11.4,11.4,0,0,1-2.25,5.15c-.33.77-1.45,1.23-2.35,1.61-.43.18-1.14.47-1.13.62s.1.28,1.73.72h0c.16.08.43-.06.66-.18s.7-.35.89,0a.15.15,0,0,1,0,.19l0,0a4.41,4.41,0,0,0,.84,0C281.23,368.92,281.78,368.9,281.89,369.22Z" transform="translate(-33.88 -157.61)"/><path class="cls-9" d="M464.71,308.8c-.32-.45-1.81-.84-3.79-.73a13.46,13.46,0,0,0-2.37.35c-3.15.66-6.77,2.55-10.4,4.93l-.4.28c-3.35,2.41-5.63,5.9-7.33,8.54-.47.78-.9,1.49-1.26,2.12a8.75,8.75,0,0,0-1.29,3l-.14.09h0A103.23,103.23,0,0,0,442,307.3c.13-1.24.24-2.47.33-3.71.16-.15.33-.36.52-.57h0a1.6,1.6,0,0,0,.41.23,8,8,0,0,0,2.61.45,10.39,10.39,0,0,0,2.75-.29c2.95-.6,6.09-2.62,9.26-5.64.11-.09.21-.19.32-.3,3-3,4-7.4,4.8-10.59.24-1.18.45-2.2.6-3.05a9.47,9.47,0,0,0,.25-2.41.55.55,0,0,0-.16-.35c-.37-.36-1.78-.44-3.56,0a11.61,11.61,0,0,0-2.08.74c-2.74,1.16-5.68,3.53-8.54,6.33l-.31.33c-2.61,2.78-4,6.35-5.11,9-.28.8-.54,1.52-.76,2.16a7.86,7.86,0,0,0-.62,3l-.12.1-.21.2a119.78,119.78,0,0,0-.14-17.37q-.24-2.86-.61-5.7l.15-.23c.12-.17.25-.4.39-.64h0a1.23,1.23,0,0,0,.43.15,7.9,7.9,0,0,0,2.56,0,10.55,10.55,0,0,0,2.55-.78c2.68-1.11,5.28-3.59,7.74-7l.24-.34c2.31-3.37,2.47-7.75,2.62-10.91,0-1.16,0-2.17,0-3a9.52,9.52,0,0,0-.21-2.32.56.56,0,0,0-.21-.31c-.42-.27-1.77-.09-3.37.67a12.36,12.36,0,0,0-1.84,1.08,29.37,29.37,0,0,0-6.93,7.55l-.23.37c-2,3.11-2.67,6.75-3.19,9.5-.13.8-.24,1.53-.33,2.18a7.68,7.68,0,0,0-.05,2.92l-.09.12-.34.45a113.5,113.5,0,0,0-2.92-14.37c-.57-2.11-1.2-4.17-1.87-6.19,0-.11.1-.33.18-.62s.12-.46.19-.73h0a1.27,1.27,0,0,0,.45,0,7.41,7.41,0,0,0,2.43-.79,10.59,10.59,0,0,0,2.22-1.48c2.23-1.85,4-5,5.34-9,.05-.13.1-.26.14-.39,1.22-3.91.09-8.14-.69-11.2-.32-1.12-.6-2.08-.86-2.87a8.74,8.74,0,0,0-.87-2.17.51.51,0,0,0-.3-.23c-.47-.13-1.71.43-3,1.62a11.16,11.16,0,0,0-1.44,1.58,29,29,0,0,0-4.42,9.24,3.31,3.31,0,0,0-.12.42c-1,3.55-.58,7.24-.28,10,.11.81.22,1.54.32,2.18a7.74,7.74,0,0,0,.81,2.82l-.05.14c-.09.25-.17.49-.26.69v0a115.2,115.2,0,0,0-4.61-11.52c-1.62-3.51-3.36-6.81-5.15-9.89l.09-.52c0-.18.06-.41.09-.65h0a1,1,0,0,0,.41,0,6.7,6.7,0,0,0,2-.92,8.83,8.83,0,0,0,1.79-1.52c1.77-1.82,3-4.72,3.79-8.35,0-.12.06-.24.08-.36.68-3.52-.71-7.1-1.68-9.69-.4-.94-.74-1.76-1-2.42a8.07,8.07,0,0,0-1-1.81.41.41,0,0,0-.28-.17c-.42-.07-1.45.55-2.48,1.71a10.91,10.91,0,0,0-1.1,1.51,25.72,25.72,0,0,0-3,8.49l-.06.38a23.69,23.69,0,0,0,.73,8.76c.18.69.34,1.32.49,1.87a6.72,6.72,0,0,0,1,2.37l0,.13c-.06.23-.1.44-.16.63l0,.08c-1-1.72-2-3.38-3.07-5-1.84-2.84-3.7-5.45-5.53-7.83a.89.89,0,0,0,.08-.17,5.82,5.82,0,0,0,.32-2.05,9,9,0,0,0-.26-2.21,21.32,21.32,0,0,0-4.17-8l-.22-.29c-2.17-2.73-5.66-3.75-8.35-4.36-1-.19-1.87-.34-2.61-.44a8.37,8.37,0,0,0-2.12-.1.47.47,0,0,0-.3.14c-.3.3-.28,1.36.15,2.74a12.31,12.31,0,0,0,.66,1.65,39.71,39.71,0,0,0,4.81,7.35l.24.28a18,18,0,0,0,7,4.66c.65.24,1.25.45,1.79.62a5.17,5.17,0,0,0,2.76.39c1.79,2.38,3.61,5,5.4,7.82,1,1.5,1.9,3.07,2.83,4.68l-.24,0a5.87,5.87,0,0,1-.64-.08h-.13a6.72,6.72,0,0,0-1.86-1.78c-.46-.34-1-.72-1.56-1.13a23.69,23.69,0,0,0-7.9-3.87l-.37-.07a25.57,25.57,0,0,0-9-.33,10.82,10.82,0,0,0-1.81.48c-1.45.54-2.4,1.27-2.49,1.69a.45.45,0,0,0,.06.32,7.91,7.91,0,0,0,1.33,1.57c.51.52,1.15,1.13,1.88,1.84,2.07,1.85,4.9,4.44,8.42,5.08l.37.06c3.66.59,6.81.49,9.16-.5a8.85,8.85,0,0,0,2.05-1.12,6.66,6.66,0,0,0,1.61-1.56,1.37,1.37,0,0,0,.17-.36h0c.24.05.46.12.65.15l.56.11c1.82,3.2,3.58,6.62,5.22,10.25a117.18,117.18,0,0,1,4.28,11l-.58-.22-.14-.06a7.76,7.76,0,0,0-1.59-2.46c-.41-.5-.89-1.06-1.43-1.67-1.89-2.06-4.41-4.78-7.72-6.39l-.39-.18a29.44,29.44,0,0,0-9.87-2.76,12.44,12.44,0,0,0-2.14.05c-1.75.21-3,.77-3.21,1.21a.58.58,0,0,0,0,.38,8.66,8.66,0,0,0,1.06,2.08c.42.71,1,1.56,1.59,2.54,1.8,2.6,4.24,6.23,8,7.88l.39.16c3.9,1.63,7.42,2.36,10.28,1.89a10.13,10.13,0,0,0,2.58-.7,7.44,7.44,0,0,0,2.19-1.3,1.27,1.27,0,0,0,.29-.35h0c.24.12.47.25.67.34l.23.11c.73,2.23,1.41,4.51,2,6.85a114.08,114.08,0,0,1,2.72,14.12l-.23-.1-.66-.33-.13-.07a7.92,7.92,0,0,0-1.33-2.61c-.36-.54-.78-1.15-1.25-1.81-1.67-2.24-3.9-5.21-7-7.14l-.37-.23a29.42,29.42,0,0,0-9.54-3.75,11.47,11.47,0,0,0-2.12-.17c-1.77,0-3.07.45-3.32.88a.48.48,0,0,0-.06.36,8.74,8.74,0,0,0,.83,2.19c.36.75.81,1.65,1.33,2.68,1.52,2.78,3.58,6.64,7.13,8.67l.37.19c3.71,2,7.14,3.1,10,2.93a10,10,0,0,0,2.63-.42,7.8,7.8,0,0,0,2.32-1.07,1.35,1.35,0,0,0,.32-.33h0c.24.15.45.31.64.41l.5.3q.36,2.91.57,5.86a117,117,0,0,1-.07,17.46l-.23-.19q-.27-.22-.57-.51l-.12-.1a8,8,0,0,0-.63-3c-.21-.64-.47-1.36-.76-2.15-1.06-2.69-2.49-6.26-5.1-9.05l-.32-.32a30.31,30.31,0,0,0-8.53-6.34,12.77,12.77,0,0,0-2.08-.74c-1.78-.45-3.19-.37-3.56,0a.55.55,0,0,0-.16.36,9.47,9.47,0,0,0,.25,2.41c.15.84.36,1.87.6,3.05.77,3.18,1.79,7.6,4.8,10.59l.32.3c3.17,3,6.31,5,9.25,5.64a10.51,10.51,0,0,0,2.76.29,7.87,7.87,0,0,0,2.6-.45,1.12,1.12,0,0,0,.41-.24h0c.19.21.36.42.52.58l.48.49c-.1,1.13-.21,2.26-.34,3.39a102.59,102.59,0,0,1-4.52,20c-.14-.16-.28-.35-.44-.56a1.13,1.13,0,0,0-.1-.13,8.47,8.47,0,0,0-.07-3.29c-.1-.72-.23-1.54-.38-2.44-.6-3.08-1.41-7.17-3.63-10.65l-.27-.41c-2.48-3.56-5.14-6.66-7.82-8.45a13.57,13.57,0,0,0-2.07-1.2c-1.8-.84-3.32-1-3.79-.73a.55.55,0,0,0-.23.34,10.21,10.21,0,0,0-.22,2.62c0,.93,0,2.06,0,3.36.19,3.55.39,8.46,3,12.24.09.13.18.26.28.38,2.77,3.85,5.71,6.62,8.72,7.85a11.53,11.53,0,0,0,2.88.86,8.88,8.88,0,0,0,2.86,0,1.68,1.68,0,0,0,.49-.17h0c.16.26.3.52.44.72a.94.94,0,0,1,.12.18c0,.11-.07.22-.1.33-1.17,3.34-2.5,6.59-3.95,9.74s-3.09,6.17-4.8,9.06c-.34.57-.68,1.13-1,1.69-.11-.21-.21-.43-.33-.68l-.07-.15a8.61,8.61,0,0,0,.6-3.24c.05-.73.09-1.56.12-2.47.05-3.13.08-7.3-1.38-11.16l-.18-.46c-1.71-4-3.68-7.57-5.94-9.86a12.91,12.91,0,0,0-1.78-1.6c-1.59-1.19-3-1.69-3.56-1.49a.62.62,0,0,0-.3.29,10.53,10.53,0,0,0-.75,2.52c-.19.91-.4,2-.65,3.3-.54,3.51-1.34,8.36.44,12.59.06.14.13.29.2.43,1.93,4.33,4.24,7.64,6.94,9.46a11.45,11.45,0,0,0,2.64,1.43,8.49,8.49,0,0,0,2.8.62,1.32,1.32,0,0,0,.51-.07h0c.1.29.19.57.28.8,0,.08.07.16.1.23a109.32,109.32,0,0,1-10.07,13.49q-1.91,2.16-3.83,4.15l0-.06c-.09-.23-.15-.5-.24-.79a1,1,0,0,0-.05-.16,8.36,8.36,0,0,0,1.12-3.09c.17-.72.35-1.53.53-2.42.56-3.09,1.28-7.19.47-11.24,0-.16-.07-.32-.1-.48-1-4.22-2.39-8.07-4.24-10.7a13.47,13.47,0,0,0-1.5-1.87c-1.37-1.43-2.72-2.17-3.27-2.05a.59.59,0,0,0-.34.23,10,10,0,0,0-1.15,2.36c-.34.87-.73,1.93-1.19,3.15-1.1,3.38-2.69,8-1.63,12.49,0,.16.08.31.13.46,1.2,4.59,2.93,8.23,5.3,10.48a11.44,11.44,0,0,0,2.37,1.83,8.85,8.85,0,0,0,2.65,1.08,1.26,1.26,0,0,0,.51,0h0c.05.3.09.6.15.83s0,.25.07.35c-2.72,2.78-5.46,5.31-8.16,7.59-2.86,2.43-5.66,4.58-8.32,6.49,0-.07,0-.13,0-.21,0-.24-.08-.52-.12-.82l0-.16a8.59,8.59,0,0,0,1.56-2.9c.27-.68.56-1.46.87-2.32,1-3,2.29-6.93,2.07-11.06l0-.49c-.42-4.31-1.21-8.33-2.66-11.19a13.44,13.44,0,0,0-1.21-2.07c-1.16-1.62-2.38-2.53-2.94-2.5a.53.53,0,0,0-.37.19,9.53,9.53,0,0,0-1.48,2.16c-.46.81-1,1.8-1.63,2.95-1.58,3.18-3.81,7.56-3.4,12.13,0,.16,0,.31.05.47.53,4.71,1.72,8.57,3.75,11.13a11.31,11.31,0,0,0,2.08,2.16,8.74,8.74,0,0,0,2.47,1.44,1.43,1.43,0,0,0,.51.09h0c0,.3,0,.6,0,.84l0,.5c-1,.7-2,1.37-2.93,2-1.79,1.25-3.57,2.28-5.16,3.31l-4.49,2.64-3.67,2c-1.07.58-2,1-2.77,1.42l-2.33,1.18,1.22,2.38,2.31-1.21c.75-.4,1.69-.85,2.77-1.46l3.74-2.09,4.54-2.74c1.6-1.06,3.39-2.13,5.2-3.43.83-.56,1.67-1.16,2.53-1.77l.66,0c.24,0,.54,0,.84,0h0a1.4,1.4,0,0,0,.1.5,8.8,8.8,0,0,0,1.5,2.45,11.74,11.74,0,0,0,2.2,2c2.6,2,6.48,3.08,11.21,3.5l.47,0c4.58.32,8.91-2,12.05-3.66,1.13-.65,2.12-1.21,2.91-1.69a9.91,9.91,0,0,0,2.14-1.53.62.62,0,0,0,.18-.38c0-.55-.93-1.76-2.57-2.88a14,14,0,0,0-2.09-1.17c-2.9-1.39-6.93-2.09-11.25-2.41l-.49,0c-4.13-.13-8.06,1.25-11,2.31l-2.3.92a8.55,8.55,0,0,0-2.86,1.62l-.17,0c-.3,0-.58-.06-.82-.1l-.07,0c2.77-2,5.69-4.32,8.67-6.9,2.55-2.22,5.15-4.65,7.72-7.31l.17,0c.24,0,.53-.1.83-.17h0a1.16,1.16,0,0,0,.2.47,8.66,8.66,0,0,0,2,2.08,12,12,0,0,0,2.58,1.52c3,1.37,7,1.63,11.7,1.05l.47-.06c4.54-.66,8.27-3.86,11-6.13,1-.88,1.81-1.63,2.49-2.27a10.17,10.17,0,0,0,1.76-1.94.6.6,0,0,0,.1-.41c-.1-.54-1.28-1.53-3.12-2.27a13.43,13.43,0,0,0-2.29-.7c-3.13-.75-7.21-.58-11.51,0l-.48.08c-4.06.74-7.61,2.93-10.27,4.59-.76.5-1.45,1-2.05,1.38a8.75,8.75,0,0,0-2.46,2.19h-.17l-.42.05q2.14-2.25,4.25-4.69a111,111,0,0,0,10-13.73l.67-.33h0a1.39,1.39,0,0,0,.32.41,8.37,8.37,0,0,0,2.42,1.52,11.19,11.19,0,0,0,2.88.85c3.2.61,7.17-.11,11.59-1.83l.45-.16c4.24-1.75,7.09-5.76,9.17-8.63.73-1.09,1.37-2,1.87-2.81a9.79,9.79,0,0,0,1.24-2.31.65.65,0,0,0,0-.42c-.23-.5-1.61-1.17-3.58-1.45a13,13,0,0,0-2.39-.11c-3.21,0-7.14,1.19-11.16,2.82l-.44.19c-3.77,1.71-6.67,4.7-8.85,6.95-.62.68-1.17,1.29-1.65,1.85a8.7,8.7,0,0,0-1.86,2.71l-.15.06-.13.05c.34-.57.69-1.14,1-1.72q2.56-4.45,4.78-9.28c1.43-3.22,2.74-6.54,3.89-10l.15-.46.44-.34h0a1.56,1.56,0,0,0,.39.34,8.67,8.67,0,0,0,2.67,1,11.74,11.74,0,0,0,3,.28c3.26,0,7-1.51,11-4l.4-.26c3.82-2.54,5.84-7,7.33-10.24.5-1.21.94-2.25,1.28-3.12a10.2,10.2,0,0,0,.77-2.5A.58.58,0,0,0,464.71,308.8Z" transform="translate(-33.88 -157.61)"/><path class="cls-9" d="M218.82,392.13l-3.67-2-4.49-2.63c-1.59-1-3.36-2.06-5.16-3.32-.95-.63-1.93-1.3-2.93-2l0-.49c0-.25,0-.54,0-.85h0a1.38,1.38,0,0,0,.5-.09,8.63,8.63,0,0,0,2.48-1.44,11.62,11.62,0,0,0,2.08-2.16c2-2.56,3.21-6.41,3.74-11.13l.06-.47c.41-4.57-1.83-8.94-3.41-12.12-.62-1.15-1.16-2.15-1.63-3a10,10,0,0,0-1.47-2.17.59.59,0,0,0-.38-.19c-.55,0-1.78.89-2.93,2.5a13.46,13.46,0,0,0-1.22,2.07c-1.45,2.87-2.24,6.88-2.65,11.2,0,.16,0,.32,0,.48-.22,4.13,1.08,8.09,2.07,11.06.32.86.61,1.64.88,2.32a8.61,8.61,0,0,0,1.55,2.9.88.88,0,0,0,0,.17c-.05.3-.07.57-.12.81,0,.08,0,.15,0,.21-2.67-1.9-5.46-4.06-8.32-6.48-2.7-2.29-5.45-4.82-8.17-7.6,0-.1.05-.22.08-.34s.09-.53.15-.84h0a1.53,1.53,0,0,0,.51,0,8.46,8.46,0,0,0,2.66-1.07,11.7,11.7,0,0,0,2.37-1.84c2.37-2.24,4.1-5.89,5.3-10.48l.12-.45c1.06-4.47-.52-9.12-1.63-12.49-.45-1.23-.84-2.29-1.19-3.16a10.05,10.05,0,0,0-1.15-2.35.54.54,0,0,0-.34-.24c-.54-.11-1.89.62-3.27,2.05a14.06,14.06,0,0,0-1.49,1.87c-1.85,2.63-3.21,6.49-4.24,10.7,0,.16-.07.32-.1.48-.81,4.05-.09,8.16.46,11.24.19.9.36,1.71.53,2.42a8.74,8.74,0,0,0,1.12,3.09c0,.06,0,.11,0,.16-.09.29-.16.56-.24.8l0,.05c-1.29-1.32-2.57-2.71-3.84-4.15a109.27,109.27,0,0,1-10.06-13.49l.09-.23c.1-.22.18-.51.29-.8h0a1.6,1.6,0,0,0,.51.06,8.44,8.44,0,0,0,2.79-.62,11.4,11.4,0,0,0,2.64-1.42c2.7-1.83,5-5.14,6.95-9.47.06-.14.13-.28.19-.43,1.78-4.23,1-9.08.44-12.59-.24-1.28-.45-2.39-.65-3.3a10.08,10.08,0,0,0-.75-2.52.55.55,0,0,0-.3-.29c-.52-.2-2,.31-3.56,1.49a14.27,14.27,0,0,0-1.78,1.6c-2.26,2.3-4.23,5.88-5.93,9.86a4.37,4.37,0,0,0-.18.46c-1.47,3.86-1.43,8-1.39,11.16,0,.92.08,1.74.13,2.47a8.56,8.56,0,0,0,.6,3.24l-.08.15c-.12.25-.22.48-.32.68-.35-.56-.7-1.12-1-1.68-1.71-2.9-3.31-5.93-4.8-9.06s-2.77-6.41-3.94-9.75l-.11-.33.12-.18c.14-.2.28-.46.45-.72h0a1.19,1.19,0,0,0,.48.17,8.39,8.39,0,0,0,2.87,0,11.42,11.42,0,0,0,2.87-.85c3-1.24,6-4,8.73-7.86l.28-.38c2.6-3.78,2.81-8.69,3-12.23,0-1.31,0-2.44,0-3.37a10.55,10.55,0,0,0-.22-2.61.61.61,0,0,0-.24-.35c-.46-.3-2-.11-3.79.73a13.81,13.81,0,0,0-2.07,1.21c-2.67,1.78-5.33,4.88-7.82,8.44-.09.14-.18.27-.26.41-2.23,3.48-3,7.57-3.64,10.65-.14.9-.28,1.72-.38,2.44a8.68,8.68,0,0,0-.07,3.29l-.1.14c-.16.2-.29.39-.43.56a102.13,102.13,0,0,1-4.52-20c-.13-1.13-.25-2.26-.35-3.39l.48-.49c.16-.16.34-.37.53-.58h0a1.22,1.22,0,0,0,.41.24,7.89,7.89,0,0,0,2.61.45,10.43,10.43,0,0,0,2.75-.29c2.95-.61,6.08-2.62,9.26-5.64l.32-.3c3-3,4-7.4,4.8-10.59.24-1.18.45-2.2.6-3.05a8.89,8.89,0,0,0,.24-2.41.5.5,0,0,0-.15-.35c-.37-.36-1.79-.44-3.56,0a11.69,11.69,0,0,0-2.09.74c-2.73,1.16-5.67,3.52-8.53,6.33l-.31.32c-2.61,2.79-4,6.36-5.11,9.05-.29.79-.55,1.51-.76,2.16a8.14,8.14,0,0,0-.63,3l-.11.1c-.21.19-.39.37-.57.51l-.23.19a117,117,0,0,1-.07-17.46q.19-3,.56-5.86c.11-.06.29-.16.51-.3s.4-.25.63-.4h0a1.68,1.68,0,0,0,.33.33,7.72,7.72,0,0,0,2.31,1.07,10.13,10.13,0,0,0,2.64.42c2.9.18,6.32-.91,10-2.92l.37-.2c3.55-2,5.61-5.89,7.13-8.66.52-1,1-1.94,1.33-2.69a8.86,8.86,0,0,0,.83-2.18.5.5,0,0,0-.05-.37c-.26-.42-1.55-.85-3.32-.88a11.57,11.57,0,0,0-2.13.17,29.29,29.29,0,0,0-9.53,3.75l-.38.23c-3.13,1.94-5.36,4.9-7,7.14-.47.67-.89,1.27-1.25,1.81a7.55,7.55,0,0,0-1.33,2.62l-.14.06a5.79,5.79,0,0,1-.66.33l-.23.11a114.24,114.24,0,0,1,2.72-14.13c.61-2.33,1.28-4.62,2-6.85l.24-.11c.19-.08.42-.21.67-.34h0a1.49,1.49,0,0,0,.29.35,7.79,7.79,0,0,0,2.19,1.31,10.14,10.14,0,0,0,2.58.69c2.87.47,6.38-.26,10.28-1.88l.39-.16c3.74-1.66,6.19-5.28,8-7.89.63-1,1.17-1.83,1.6-2.54a8.91,8.91,0,0,0,1-2.08.5.5,0,0,0,0-.37c-.22-.45-1.46-1-3.22-1.21a12.31,12.31,0,0,0-2.13-.06,29.38,29.38,0,0,0-9.87,2.76l-.39.19c-3.32,1.6-5.84,4.32-7.73,6.38-.53.61-1,1.17-1.43,1.68a7.3,7.3,0,0,0-1.58,2.46l-.15.05-.58.22a115.94,115.94,0,0,1,4.29-11c1.63-3.64,3.39-7.06,5.21-10.25l.57-.12c.18,0,.41-.09.64-.15h0a.93.93,0,0,0,.17.36,6.58,6.58,0,0,0,1.6,1.56,8.93,8.93,0,0,0,2.06,1.12c2.35,1,5.5,1.09,9.16.5l.36,0c3.53-.65,6.36-3.24,8.43-5.09.73-.71,1.37-1.32,1.88-1.84a8.07,8.07,0,0,0,1.32-1.56.48.48,0,0,0,.07-.32c-.09-.43-1-1.16-2.5-1.7a11.88,11.88,0,0,0-1.81-.48,25.76,25.76,0,0,0-9,.33l-.38.08a23.44,23.44,0,0,0-7.89,3.86c-.58.41-1.11.79-1.56,1.14a6.44,6.44,0,0,0-1.86,1.77l-.14,0-.64.08-.24,0c.93-1.62,1.88-3.19,2.83-4.68,1.8-2.84,3.62-5.44,5.4-7.83a5,5,0,0,0,2.76-.38c.54-.17,1.14-.38,1.79-.63a18,18,0,0,0,7-4.65l.24-.29a39.2,39.2,0,0,0,4.81-7.35,12.31,12.31,0,0,0,.66-1.65c.44-1.38.45-2.44.16-2.74a.47.47,0,0,0-.31-.13,7.92,7.92,0,0,0-2.12.1c-.74.09-1.61.24-2.6.43-2.69.61-6.18,1.63-8.36,4.37-.07.09-.14.19-.22.28a21.54,21.54,0,0,0-4.17,8,9.46,9.46,0,0,0-.26,2.21,6.06,6.06,0,0,0,.32,2.05l.08.17c-1.82,2.38-3.68,5-5.53,7.83-1,1.58-2.05,3.24-3.06,5l0-.08c-.06-.18-.1-.39-.16-.63l0-.12a6.88,6.88,0,0,0,1-2.38c.16-.55.32-1.18.49-1.87a23.47,23.47,0,0,0,.74-8.76c0-.13,0-.25-.07-.38a25.8,25.8,0,0,0-2.95-8.49,10.94,10.94,0,0,0-1.11-1.51c-1-1.16-2-1.78-2.48-1.71a.51.51,0,0,0-.28.18,7.78,7.78,0,0,0-1,1.8c-.3.66-.64,1.48-1,2.42-1,2.6-2.37,6.18-1.69,9.7,0,.12.05.24.08.36.79,3.62,2,6.52,3.8,8.35a9.34,9.34,0,0,0,1.78,1.51,7,7,0,0,0,2,.93,1.58,1.58,0,0,0,.4,0h0c0,.24.06.47.09.66l.09.51c-1.79,3.09-3.52,6.39-5.15,9.89a117.63,117.63,0,0,0-4.6,11.52l0,0c-.09-.2-.16-.43-.26-.69a1.21,1.21,0,0,0-.05-.14,7.54,7.54,0,0,0,.81-2.81c.11-.65.21-1.38.32-2.18.31-2.78.7-6.47-.27-10l-.12-.42a29.24,29.24,0,0,0-4.42-9.24,11.73,11.73,0,0,0-1.44-1.57c-1.31-1.19-2.55-1.76-3-1.63a.52.52,0,0,0-.29.24,8.76,8.76,0,0,0-.88,2.16c-.25.79-.53,1.76-.86,2.87-.78,3.07-1.9,7.3-.69,11.2.05.13.09.27.14.4,1.35,4,3.11,7.13,5.35,9a10.4,10.4,0,0,0,2.22,1.49,8,8,0,0,0,2.42.79,1.28,1.28,0,0,0,.46,0h0c.07.27.12.53.18.74s.15.5.19.61q-1,3-1.88,6.19a115.65,115.65,0,0,0-2.92,14.37l-.33-.44-.09-.12a7.74,7.74,0,0,0,0-2.93c-.09-.65-.2-1.38-.33-2.18-.52-2.74-1.23-6.39-3.19-9.5l-.24-.36a29.25,29.25,0,0,0-6.92-7.56,12.89,12.89,0,0,0-1.84-1.08c-1.6-.75-3-.93-3.37-.67a.5.5,0,0,0-.21.31,8.63,8.63,0,0,0-.21,2.33c0,.83,0,1.83,0,3,.15,3.15.31,7.53,2.61,10.9l.25.35c2.45,3.43,5,5.91,7.74,7a10.42,10.42,0,0,0,2.55.78,7.62,7.62,0,0,0,2.55.05,1.16,1.16,0,0,0,.43-.15h0c.15.24.27.47.4.65l.15.23c-.25,1.88-.46,3.78-.61,5.69a118.38,118.38,0,0,0-.14,17.37l-.22-.19-.11-.11a7.93,7.93,0,0,0-.63-3c-.21-.64-.47-1.36-.76-2.15-1.06-2.7-2.5-6.27-5.11-9.05l-.31-.33a30.6,30.6,0,0,0-8.53-6.33,12.77,12.77,0,0,0-2.08-.74c-1.78-.45-3.2-.37-3.57,0a.5.5,0,0,0-.15.35,9.29,9.29,0,0,0,.24,2.41c.16.85.37,1.87.61,3,.77,3.19,1.79,7.61,4.8,10.6l.31.3c3.18,3,6.31,5,9.26,5.64a10.43,10.43,0,0,0,2.76.28,7.92,7.92,0,0,0,2.6-.44,1.51,1.51,0,0,0,.41-.24h0l.52.58c.09,1.23.2,2.47.33,3.7a103.51,103.51,0,0,0,4.28,20.12h0l-.15-.08a8.41,8.41,0,0,0-1.29-3q-.54-1-1.26-2.13c-1.7-2.64-4-6.13-7.33-8.54l-.4-.28c-3.63-2.37-7.25-4.27-10.4-4.93a13.19,13.19,0,0,0-2.37-.35c-2-.11-3.47.28-3.79.73a.59.59,0,0,0-.08.41,9.77,9.77,0,0,0,.76,2.51c.34.86.78,1.91,1.29,3.11,1.49,3.22,3.5,7.71,7.32,10.25l.41.25c4,2.54,7.76,4,11,4a11.24,11.24,0,0,0,3-.27,8.72,8.72,0,0,0,2.68-1,1.32,1.32,0,0,0,.38-.34h0l.44.33.15.47c1.14,3.41,2.45,6.73,3.89,9.95s3.06,6.3,4.77,9.27c.34.58.68,1.15,1,1.72l-.13-.05-.16-.05a8.51,8.51,0,0,0-1.85-2.72c-.48-.56-1-1.17-1.65-1.84-2.18-2.26-5.09-5.24-8.85-7l-.45-.19c-4-1.63-7.94-2.78-11.16-2.82a13.1,13.1,0,0,0-2.39.12c-2,.27-3.35.94-3.57,1.45a.51.51,0,0,0,0,.41,10,10,0,0,0,1.24,2.32c.5.78,1.13,1.72,1.86,2.8,2.09,2.87,4.93,6.88,9.18,8.63l.44.17c4.43,1.71,8.39,2.43,11.6,1.82a11.65,11.65,0,0,0,2.87-.84,8.66,8.66,0,0,0,2.43-1.53,1.32,1.32,0,0,0,.31-.41h0l.67.32a110,110,0,0,0,10,13.73c1.4,1.64,2.82,3.2,4.24,4.69l-.42,0-.16,0A8.6,8.6,0,0,0,181,367c-.6-.42-1.29-.88-2.05-1.39-2.66-1.66-6.21-3.84-10.28-4.59l-.48-.08c-4.29-.6-8.38-.76-11.51,0a13.43,13.43,0,0,0-2.29.7c-1.84.75-3,1.73-3.11,2.27a.56.56,0,0,0,.09.41,10,10,0,0,0,1.77,1.94c.67.64,1.51,1.4,2.49,2.27,2.72,2.28,6.46,5.47,11,6.13l.47.06c4.71.58,8.73.32,11.69-1a11.4,11.4,0,0,0,2.58-1.52,8.63,8.63,0,0,0,2-2.07,1.58,1.58,0,0,0,.21-.47h0c.31.06.59.13.83.16l.17,0c2.58,2.66,5.17,5.09,7.73,7.31,3,2.59,5.89,4.89,8.67,6.91h-.07l-.82.1-.17,0a8.47,8.47,0,0,0-2.87-1.61c-.67-.29-1.44-.59-2.29-.93-2.95-1.05-6.88-2.44-11-2.31l-.48,0c-4.33.32-8.36,1-11.26,2.42a14.12,14.12,0,0,0-2.09,1.16c-1.64,1.12-2.58,2.33-2.56,2.89a.56.56,0,0,0,.18.38,10.49,10.49,0,0,0,2.13,1.52c.8.48,1.78,1,2.92,1.69,3.14,1.65,7.47,4,12,3.67l.47-.05c4.72-.42,8.6-1.53,11.2-3.5a11.49,11.49,0,0,0,2.21-2A8.56,8.56,0,0,0,200,385a1.28,1.28,0,0,0,.1-.51h0c.31,0,.61,0,.85,0l.65,0c.86.62,1.71,1.21,2.53,1.77,1.81,1.3,3.6,2.37,5.21,3.44l4.53,2.73,3.74,2.09c1.09.61,2,1.07,2.77,1.47l2.32,1.2,1.21-2.38-2.32-1.17C220.85,393.17,219.89,392.71,218.82,392.13Z" transform="translate(-33.88 -157.61)"/><rect x="36.75" y="372.38" width="455.82" height="55.58" rx="2.7"/><text class="cls-10" transform="translate(50.41 408.52)"><tspan class="cls-11">T</tspan><tspan x="19.67" y="0">he Ethiopian Light </tspan><tspan class="cls-12" x="268.05" y="0">R</tspan><tspan x="290.01" y="0">enaissance</tspan></text><rect class="cls-13" width="532.44" height="495.72"/></svg>